<svg width="297" height="447" viewBox="0 0 297 447" fill="none" xmlns="http://www.w3.org/2000/svg">
<g clip-path="url(#clip0_285_382)">
<path d="M74.2649 447C115.243 447 148.5 413.624 148.5 372.5V298H74.2649C33.2871 298 0.0297852 331.376 0.0297852 372.5C0.0297852 413.624 33.2871 447 74.2649 447Z" fill="#0ACF83"/>
<path d="M0.0297852 223.5C0.0297852 182.376 33.2871 149 74.2649 149H148.5V298H74.2649C33.2871 298 0.0297852 264.624 0.0297852 223.5Z" fill="#A259FF"/>
<path d="M0.0297852 74.5C0.0297852 33.376 33.2871 0 74.2649 0H148.5V149H74.2649C33.2871 149 0.0297852 115.624 0.0297852 74.5Z" fill="#F24E1E"/>
<path d="M148.5 0H222.735C263.713 0 296.97 33.376 296.97 74.5C296.97 115.624 263.713 149 222.735 149H148.5V0Z" fill="#FF7262"/>
<path d="M296.97 223.5C296.97 264.624 263.713 298 222.735 298C181.757 298 148.5 264.624 148.5 223.5C148.5 182.376 181.757 149 222.735 149C263.713 149 296.97 182.376 296.97 223.5Z" fill="#1ABCFE"/>
</g>
<defs>
<clipPath id="clip0_285_382">
<rect width="297" height="447" fill="white"/>
</clipPath>
</defs>
</svg>
