<svg xmlns="http://www.w3.org/2000/svg" width="56" height="56" viewBox="0 0 56 56" fill="none" data-inject-url="https://nyousefali.com.br/svg/icon-design.svg" class="icon-s">
<path class="icon-design" d="M8 43.5068C14.912 34.0415 17.2663 28.028 19.3518 17.4576C19.5234 16.5879 20.2405 15.9249 21.1225 15.8355L29.7633 14.9596C30.3658 14.8985 30.9636 15.1137 31.3888 15.5448L40.0306 24.305C40.4479 24.728 40.6555 25.3146 40.5971 25.9059L39.735 34.6449C39.6446 35.5613 38.9363 36.2957 38.0268 36.4396C27.2826 38.1394 21.4604 40.8535 12.4324 48M35.7027 7L49 20.4795M27.1144 33.1169L26.0454 34.2005C25.2622 34.9944 23.981 34.9945 23.1978 34.2005L22.1288 33.1169C21.3606 32.3381 21.3606 31.0866 22.1288 30.3078L23.1978 29.2241C23.981 28.4302 25.2622 28.4302 26.0454 29.2241L27.1144 30.3078C27.8827 31.0866 27.8827 32.3381 27.1144 33.1169Z" stroke="url(#paint0_linear_377_547--inject-7)" stroke-width="2" stroke-linecap="round" stroke-linejoin="round"></path>
<defs>
<linearGradient id="paint0_linear_377_547--inject-7" x1="46.6232" y1="4.02899" x2="10.3768" y2="50.6739" gradientUnits="userSpaceOnUse">
<stop stop-color="#538BF0"></stop>
<stop offset="1" stop-color="#1141BD"></stop>
</linearGradient>
</defs>
</svg>