<svg width="81" height="79" viewBox="0 0 81 79" fill="none" xmlns="http://www.w3.org/2000/svg">
<mask id="mask0_9_5617" style="mask-type:luminance" maskUnits="userSpaceOnUse" x="0" y="0" width="81" height="79">
<path d="M0 0H80.4013V78.1608H0V0Z" fill="white"/>
</mask>
<g mask="url(#mask0_9_5617)">
<path fill-rule="evenodd" clip-rule="evenodd" d="M38.4114 63.7791C29.1521 62.7185 22.6461 57.1583 18.3746 47.9856C17.5716 76.1919 48.215 86.9402 67.3915 69.3979C75.3596 62.0888 80.3475 51.5968 80.3475 39.9308C80.3475 39.1278 80.3475 38.3248 80.2901 37.523L39.5574 37.379L39.6148 43.3993L62.4329 43.3419C61.3431 57.273 52.1412 65.3278 38.4114 63.7791ZM23.9068 77.3953C9.74625 64.0659 6.79405 42.1947 20.8106 27.6339C26.6295 21.5855 34.5415 18.8616 44.2304 19.091C28.1209 5.3039 0 16.3963 0 40.8193C0 57.1583 9.83288 71.2322 23.9068 77.3953ZM15.4798 8.77233C32.9647 3.18281 51.0233 8.48554 59.4514 29.1521L78.8 28.8665C74.0135 12.2115 58.6484 0 40.4459 0C30.9876 0 22.3019 3.26826 15.4798 8.77233Z" fill="url(#paint0_linear_9_5617)"/>
</g>
<defs>
<linearGradient id="paint0_linear_9_5617" x1="40.1737" y1="0" x2="40.1737" y2="77.9116" gradientUnits="userSpaceOnUse">
<stop stop-color="#01EADA"/>
<stop offset="1" stop-color="#0194FF"/>
</linearGradient>
</defs>
</svg>
