<svg width="411" height="452" viewBox="0 0 411 452" fill="none" xmlns="http://www.w3.org/2000/svg">
<path d="M186.843 4.8908C198.06 -1.52332 212.67 -1.5523 223.877 4.8908C280.261 36.7184 336.662 68.4961 393.036 100.343C403.639 106.31 410.732 118.098 410.624 130.303V321.79C410.703 334.501 402.909 346.571 391.723 352.403C335.525 384.055 279.355 415.746 223.167 447.398C211.718 453.937 196.814 453.434 185.723 446.358C168.875 436.601 151.997 426.892 135.148 417.144C131.705 415.094 127.823 413.462 125.392 410.127C127.541 407.233 131.384 406.872 134.506 405.609C141.539 403.374 147.998 399.788 154.459 396.308C156.093 395.191 158.088 395.62 159.654 396.619C174.061 404.871 188.341 413.363 202.797 421.537C205.88 423.315 209.003 420.954 211.639 419.486C266.787 388.349 322.002 357.33 377.14 326.183C379.183 325.201 380.313 323.035 380.147 320.799C380.185 257.631 380.156 194.453 380.166 131.285C380.4 128.749 378.93 126.416 376.634 125.378C320.631 93.8709 264.657 62.3153 208.663 30.8C207.693 30.1337 206.544 29.7762 205.366 29.7745C204.189 29.7728 203.039 30.1269 202.067 30.7903C146.073 62.3153 90.1085 93.8999 34.1148 125.406C31.827 126.445 30.2915 128.739 30.5638 131.285C30.5734 194.453 30.5638 257.631 30.5638 320.809C30.4667 321.899 30.7065 322.994 31.251 323.944C31.7954 324.895 32.6183 325.656 33.6089 326.125C48.5511 334.59 63.5126 342.995 78.4644 351.431C86.8877 355.96 97.2299 358.651 106.51 355.181C114.7 352.247 120.441 343.898 120.284 335.211C120.362 272.412 120.246 209.604 120.342 146.814C120.138 144.027 122.785 141.723 125.498 141.986C132.678 141.937 139.867 141.889 147.046 142.005C150.043 141.937 152.105 144.939 151.735 147.748C151.706 210.944 151.812 274.142 151.686 337.339C151.706 354.181 144.779 372.508 129.185 380.749C109.973 390.691 86.2271 388.583 67.2473 379.049C50.8164 370.856 35.1363 361.188 18.9971 352.411C7.78158 346.612 0.0269307 334.493 0.105879 321.792V130.303C-0.0117378 117.845 7.36267 105.843 18.2962 99.9631C74.4848 68.2852 130.664 36.5832 186.843 4.8908Z" fill="#8CC84B"/>
<path d="M235.861 137.535C260.368 135.96 286.603 136.602 308.655 148.662C325.729 157.904 335.194 177.301 335.496 196.251C335.019 198.807 332.344 200.217 329.902 200.041C322.791 200.032 315.68 200.138 308.569 199.993C305.553 200.109 303.8 197.331 303.422 194.667C301.379 185.6 296.429 176.62 287.887 172.247C274.773 165.688 259.568 166.018 245.269 166.155C234.83 166.709 223.605 167.612 214.761 173.744C207.972 178.389 205.909 187.767 208.333 195.319C210.617 200.741 216.883 202.491 222.01 204.104C251.543 211.82 282.839 211.052 311.808 221.207C323.802 225.347 335.534 233.395 339.64 245.94C345.01 262.753 342.656 282.85 330.681 296.348C320.971 307.456 306.828 313.501 292.722 316.785C273.956 320.965 254.482 321.071 235.425 319.215C217.505 317.174 198.857 312.471 185.024 300.274C173.194 290.013 167.416 274.025 167.99 258.594C168.127 255.988 170.724 254.171 173.223 254.385C180.383 254.327 187.543 254.308 194.704 254.395C197.563 254.19 199.684 256.659 199.83 259.352C201.152 267.991 204.401 277.057 211.942 282.179C226.494 291.558 244.754 290.916 261.416 291.178C275.221 290.566 290.717 290.381 301.983 281.266C307.927 276.067 309.688 267.369 308.081 259.887C306.341 253.569 299.726 250.625 294.045 248.7C264.89 239.487 233.245 242.83 204.372 232.411C192.651 228.273 181.316 220.449 176.813 208.419C170.529 191.393 173.408 170.333 186.638 157.291C199.537 144.318 218.158 139.324 235.861 137.535Z" fill="#8CC84B"/>
</svg>
