<svg width="536" height="611" viewBox="0 0 536 611" fill="none" xmlns="http://www.w3.org/2000/svg">
<g clip-path="url(#clip0_285_374)">
<path d="M504.279 291.421C504.279 258.002 462.444 226.33 398.304 206.69C413.105 141.291 406.527 89.2593 377.541 72.601C370.86 68.6935 363.048 66.8426 354.516 66.8426V89.7735C359.244 89.7735 363.048 90.6989 366.234 92.447C380.213 100.468 386.278 131.008 381.55 170.289C380.419 179.955 378.569 190.135 376.307 200.52C356.161 195.585 334.164 191.78 311.037 189.312C297.16 170.289 282.77 153.013 268.277 137.897C301.786 106.74 333.239 89.6706 354.619 89.6706V66.7397C326.352 66.7397 289.349 86.8943 251.934 121.856C214.519 87.0999 177.515 67.1511 149.248 67.1511V90.0819C170.525 90.0819 202.081 107.049 235.59 138C221.2 153.116 206.81 170.289 193.139 189.312C169.909 191.78 147.912 195.585 127.766 200.623C125.402 190.34 123.654 180.366 122.421 170.803C117.59 131.522 123.551 100.982 137.428 92.8583C140.511 91.0074 144.52 90.1848 149.248 90.1848V67.2539C140.614 67.2539 132.802 69.1048 126.018 73.0123C97.1348 89.6706 90.6591 141.599 105.563 206.793C41.6292 226.536 0 258.105 0 291.421C0 324.841 41.8348 356.512 105.975 376.152C91.1731 441.552 97.7515 493.583 126.738 510.242C133.419 514.149 141.231 516 149.865 516C178.132 516 215.136 495.845 252.55 460.884C289.965 495.64 326.969 515.589 355.236 515.589C363.87 515.589 371.682 513.738 378.466 509.83C407.349 493.172 413.825 441.243 398.921 376.05C462.649 356.409 504.279 324.738 504.279 291.421ZM370.448 222.834C366.645 236.099 361.917 249.775 356.572 263.452C352.358 255.225 347.938 246.999 343.107 238.773C338.378 230.546 333.342 222.526 328.305 214.711C342.901 216.87 356.983 219.544 370.448 222.834ZM323.371 332.347C315.354 346.229 307.131 359.391 298.6 371.628C283.284 372.965 267.763 373.685 252.139 373.685C236.618 373.685 221.097 372.965 205.885 371.731C197.353 359.494 189.027 346.435 181.01 332.656C173.198 319.185 166.106 305.509 159.63 291.73C166.003 277.951 173.198 264.172 180.907 250.701C188.925 236.819 197.148 223.657 205.679 211.42C220.994 210.083 236.515 209.364 252.139 209.364C267.66 209.364 283.181 210.083 298.394 211.317C306.925 223.554 315.251 236.613 323.269 250.392C331.081 263.863 338.173 277.539 344.649 291.318C338.173 305.098 331.081 318.877 323.371 332.347ZM356.572 318.979C362.123 332.759 366.851 346.538 370.757 359.905C357.292 363.196 343.107 365.972 328.408 368.132C333.445 360.214 338.481 352.09 343.21 343.761C347.938 335.535 352.358 327.206 356.572 318.979ZM252.345 428.698C242.786 418.826 233.226 407.824 223.77 395.793C233.021 396.204 242.477 396.513 252.036 396.513C261.699 396.513 271.258 396.307 280.612 395.793C271.361 407.824 261.801 418.826 252.345 428.698ZM175.87 368.132C161.275 365.972 147.193 363.299 133.727 360.008C137.531 346.743 142.259 333.067 147.604 319.391C151.818 327.617 156.238 335.843 161.069 344.07C165.9 352.296 170.834 360.317 175.87 368.132ZM251.831 154.144C261.39 164.016 270.949 175.019 280.406 187.05C271.155 186.638 261.699 186.33 252.139 186.33C242.477 186.33 232.918 186.536 223.564 187.05C232.815 175.019 242.374 164.016 251.831 154.144ZM175.768 214.711C170.731 222.629 165.694 230.752 160.966 239.081C156.238 247.308 151.818 255.534 147.604 263.76C142.053 249.981 137.325 236.202 133.419 222.834C146.884 219.647 161.069 216.87 175.768 214.711ZM82.7445 343.453C46.3575 327.926 22.819 307.565 22.819 291.421C22.819 275.277 46.3575 254.814 82.7445 239.39C91.5842 235.585 101.246 232.192 111.217 229.004C117.076 249.159 124.785 270.136 134.344 291.627C124.888 313.015 117.281 333.89 111.525 353.941C101.349 350.754 91.687 347.257 82.7445 343.453ZM138.044 490.396C124.065 482.375 118.001 451.835 122.729 412.554C123.86 402.888 125.71 392.708 127.971 382.322C148.118 387.258 170.114 391.063 193.242 393.531C207.118 412.554 221.508 429.829 236.002 444.945C202.493 476.102 171.039 493.172 149.66 493.172C145.034 493.069 141.128 492.144 138.044 490.396ZM381.858 412.04C386.689 451.32 380.727 481.861 366.851 489.984C363.767 491.835 359.758 492.658 355.03 492.658C333.753 492.658 302.197 475.691 268.688 444.739C283.079 429.624 297.469 412.451 311.14 393.428C334.37 390.96 356.366 387.155 376.513 382.117C378.877 392.502 380.727 402.477 381.858 412.04ZM421.431 343.453C412.592 347.257 402.929 350.651 392.959 353.839C387.1 333.684 379.391 312.707 369.832 291.216C379.288 269.827 386.895 248.953 392.651 228.901C402.827 232.089 412.489 235.585 421.534 239.39C457.921 254.917 481.46 275.277 481.46 291.421C481.357 307.565 457.818 328.028 421.431 343.453Z" fill="#61DAFB"/>
<path d="M252.036 338.414C277.98 338.414 299.011 317.375 299.011 291.422C299.011 265.468 277.98 244.429 252.036 244.429C226.093 244.429 205.062 265.468 205.062 291.422C205.062 317.375 226.093 338.414 252.036 338.414Z" fill="#61DAFB"/>
</g>
<defs>
<clipPath id="clip0_285_374">
<rect width="536" height="611" fill="white"/>
</clipPath>
</defs>
</svg>
