<svg width="362" height="362" viewBox="0 0 362 362" fill="none" xmlns="http://www.w3.org/2000/svg">
<path d="M185.471 329.563C187.561 329.493 189.395 329.773 190.974 330.404C192.554 331.055 193.876 331.95 194.938 333.089C195.979 334.228 196.769 335.504 197.307 336.916C197.845 338.328 198.138 339.749 198.186 341.177L198.209 341.881C198.258 343.352 198.061 344.799 197.618 346.223C197.174 347.646 196.482 348.95 195.539 350.134C194.576 351.319 193.369 352.277 191.921 353.009C190.451 353.741 188.746 354.139 186.806 354.204C184.695 354.275 182.817 353.942 181.17 353.208C179.524 352.494 178.187 351.461 177.16 350.108C176.134 348.776 175.516 347.206 175.306 345.399L180.551 345.224C180.707 346.072 181.073 346.807 181.649 347.428C182.204 348.05 182.913 348.528 183.778 348.862C184.622 349.197 185.577 349.346 186.643 349.311C187.666 349.277 188.577 349.065 189.375 348.675C190.152 348.286 190.817 347.752 191.371 347.072C191.903 346.392 192.303 345.589 192.571 344.662C192.818 343.758 192.924 342.762 192.887 341.674C192.85 340.544 192.666 339.515 192.336 338.587C191.986 337.681 191.501 336.896 190.881 336.234C190.262 335.593 189.509 335.106 188.623 334.773C187.715 334.44 186.718 334.292 185.63 334.328C184.18 334.377 182.932 334.717 181.886 335.35C180.84 335.982 180.099 336.797 179.663 337.793L180.183 334.19L180.368 339.755L175.539 339.916L175.373 334.927C176.321 333.273 177.665 331.979 179.405 331.046C181.125 330.135 183.147 329.64 185.471 329.563ZM186.443 338.527L186.569 342.301L173.712 342.731L173.586 338.957L186.443 338.527Z" fill="#E4F7FF"/>
<path d="M165.149 329.733L161.246 352.959L156.071 352.09L159.974 328.863L165.149 329.733ZM151.169 327.384L156.257 338.428L150.577 337.473L145.173 326.376L151.169 327.384ZM160.121 336.481L159.437 340.552L153.757 339.597C152.999 339.47 152.323 339.508 151.726 339.71C151.105 339.931 150.601 340.289 150.215 340.787C149.804 341.302 149.536 341.928 149.413 342.664C149.289 343.4 149.339 344.068 149.562 344.668C149.762 345.286 150.12 345.79 150.639 346.18C151.133 346.587 151.758 346.855 152.516 346.982L158.196 347.937L157.459 352.323L152.189 351.437C150.274 351.116 148.662 350.542 147.351 349.716C146.037 348.911 145.097 347.877 144.531 346.613C143.964 345.35 143.826 343.856 144.116 342.131L144.201 341.626C144.487 339.922 145.115 338.567 146.084 337.562C147.029 336.574 148.254 335.915 149.759 335.583C151.239 335.27 152.937 335.274 154.851 335.595L160.121 336.481Z" fill="#E4F7FF"/>
<path d="M137.267 323.97L129.473 345.992L124.646 344.283L132.44 322.262L137.267 323.97ZM133.043 322.475L131.591 326.578L121.968 323.172L123.42 319.07L133.043 322.475ZM129.808 331.616L128.356 335.719L119.427 332.558L120.879 328.456L129.808 331.616ZM126.702 340.394L125.25 344.497L115.838 341.166L117.29 337.063L126.702 340.394Z" fill="#E4F7FF"/>
<path d="M106.025 309.578C107.835 310.623 109.244 311.831 110.251 313.201C111.248 314.589 111.896 316.047 112.197 317.575C112.478 319.093 112.474 320.593 112.184 322.076C111.894 323.56 111.392 324.92 110.677 326.158L110.325 326.768C109.589 328.042 108.657 329.167 107.528 330.141C106.399 331.115 105.122 331.855 103.696 332.362C102.251 332.858 100.721 333.034 99.1049 332.889C97.4704 332.734 95.8125 332.171 94.1312 331.2C92.3022 330.144 90.883 328.869 89.8737 327.374C88.8536 325.898 88.2653 324.315 88.1089 322.623C87.9417 320.95 88.2469 319.291 89.0243 317.646L93.5691 320.27C93.2532 321.073 93.1755 321.89 93.3358 322.722C93.4776 323.543 93.8274 324.324 94.385 325.065C94.9242 325.795 95.6557 326.426 96.5794 326.96C97.4662 327.472 98.3513 327.774 99.2347 327.865C100.1 327.945 100.947 327.843 101.776 327.559C102.587 327.263 103.352 326.793 104.069 326.148C104.757 325.511 105.373 324.721 105.917 323.779C106.483 322.8 106.871 321.829 107.081 320.867C107.263 319.912 107.266 318.99 107.09 318.1C106.903 317.229 106.522 316.417 105.946 315.666C105.351 314.904 104.583 314.251 103.641 313.707C102.384 312.981 101.145 312.611 99.9224 312.595C98.7 312.579 97.6402 312.878 96.7431 313.493L99.0895 310.709L96.3053 315.531L92.1207 313.115L94.6169 308.792C96.2959 307.889 98.1208 307.502 100.092 307.63C102.033 307.766 104.011 308.415 106.025 309.578ZM102.11 317.701L100.222 320.971L89.0819 314.538L90.97 311.268L102.11 317.701Z" fill="#E4F7FF"/>
<path d="M80.7357 291.132C82.3001 292.551 83.4234 294.059 84.1055 295.657C84.7575 297.256 85.0615 298.842 85.0175 300.415C84.9591 302.004 84.6466 303.491 84.08 304.878C83.4976 306.251 82.7693 307.419 81.8951 308.383L81.4222 308.905C80.4476 309.979 79.2978 310.866 77.9727 311.565C76.6174 312.265 75.1657 312.691 73.6174 312.842C72.0692 312.993 70.489 312.799 68.8768 312.258C67.2503 311.734 65.6785 310.783 64.1614 309.407C62.6444 308.032 61.5455 306.56 60.8649 304.992C60.1699 303.44 59.8222 301.887 59.8217 300.331C59.8213 298.775 60.1036 297.289 60.6688 295.872C61.2196 294.471 61.9823 293.233 62.9568 292.158L63.4297 291.637C64.3039 290.673 65.4036 289.841 66.7287 289.142C68.0539 288.443 69.5041 287.987 71.0796 287.775C72.6406 287.578 74.2567 287.733 75.9277 288.24C77.5685 288.749 79.1712 289.713 80.7357 291.132ZM77.4466 294.758C76.6249 294.013 75.7611 293.489 74.8552 293.186C73.9335 292.868 73.0142 292.755 72.0974 292.845C71.1647 292.921 70.2789 293.183 69.4399 293.632C68.6009 294.08 67.8375 294.684 67.1496 295.442C66.4187 296.248 65.8787 297.098 65.5296 297.991C65.1504 298.885 64.9757 299.792 65.0055 300.712C65.0052 301.634 65.2072 302.522 65.6115 303.379C66.0157 304.235 66.6287 305.036 67.4505 305.781C68.2722 306.526 69.1289 307.058 70.0204 307.377C70.9119 307.696 71.8241 307.818 72.7567 307.742C73.6593 307.668 74.5372 307.398 75.3905 306.934C76.2294 306.485 77.0144 305.858 77.7453 305.052C78.4332 304.293 78.9596 303.474 79.3245 302.596C79.6893 301.717 79.8719 300.817 79.8723 299.896C79.8568 298.96 79.6541 298.056 79.2641 297.184C78.8742 296.312 78.2683 295.504 77.4466 294.758Z" fill="#E4F7FF"/>
<path d="M65.4378 276.48L46.4216 290.375L43.3253 286.138L62.3416 272.242L65.4378 276.48ZM57.0742 265.034L53.0015 276.491L49.6032 271.84L53.4871 260.125L57.0742 265.034ZM57.1263 277.797L53.7933 280.232L50.395 275.582C49.9419 274.962 49.4312 274.516 48.8628 274.244C48.2646 273.968 47.6534 273.873 47.0294 273.959C46.3755 274.04 45.7472 274.301 45.1443 274.742C44.5414 275.182 44.1105 275.695 43.8514 276.281C43.5625 276.862 43.4675 277.473 43.5661 278.114C43.635 278.751 43.896 279.379 44.3491 279.999L47.7474 284.65L44.156 287.274L41.0032 282.96C39.8578 281.392 39.1046 279.855 38.7436 278.349C38.3654 276.855 38.4148 275.458 38.8919 274.158C39.3689 272.858 40.3136 271.692 41.7261 270.66L42.1395 270.358C43.5347 269.339 44.9302 268.808 46.3261 268.766C47.6921 268.719 49.0293 269.102 50.3376 269.916C51.6162 270.726 52.8281 271.915 53.9735 273.482L57.1263 277.797Z" fill="#E4F7FF"/>
<path d="M39.5524 252.794L29.4338 265.212L27.1073 260.366L34.768 251.258L34.91 252.219L33.7467 249.796L34.4357 250.565L22.745 251.279L20.5432 246.692L36.3257 246.073L39.5524 252.794ZM47.0448 247.92L38.3903 252.074L36.1607 247.43L44.8152 243.275L47.0448 247.92Z" fill="#E4F7FF"/>
<path d="M27.9976 214.166L23.5371 215.033L22.7373 210.918C22.5826 210.123 22.2932 209.473 21.8692 208.968C21.4411 208.443 20.9138 208.078 20.2874 207.874C19.6399 207.674 18.9393 207.647 18.1854 207.793C17.3896 207.948 16.7396 208.237 16.2352 208.662C15.7099 209.09 15.3576 209.625 15.1784 210.269C14.9742 210.895 14.9495 211.606 15.1041 212.402L15.904 216.517L11.4435 217.384L10.6925 213.52C10.3139 211.573 10.3149 209.845 10.6954 208.337C11.0719 206.807 11.7857 205.56 12.8369 204.595C13.884 203.609 15.2452 202.954 16.9205 202.628L17.4231 202.53C19.0566 202.213 20.5539 202.313 21.915 202.831C23.2511 203.332 24.3801 204.22 25.302 205.497C26.2199 206.753 26.8681 208.355 27.2466 210.303L27.9976 214.166ZM35.442 217.414L12.3227 221.907L11.3214 216.756L34.4407 212.262L35.442 217.414Z" fill="#E4F7FF"/>
<path d="M31.1804 191.294L7.62929 191.494L7.58471 186.247L31.1359 186.047L31.1804 191.294ZM31.06 177.119L21.0706 184.052L21.0216 178.292L31.0084 171.039L31.06 177.119ZM23.6601 187.518L19.5322 187.553L19.4833 181.793C19.4768 181.025 19.3218 180.365 19.0185 179.813C18.6936 179.24 18.2526 178.806 17.6954 178.512C17.1167 178.197 16.454 178.043 15.7074 178.049C14.9607 178.056 14.3114 178.221 13.7595 178.546C13.1861 178.849 12.7525 179.29 12.4587 179.869C12.1434 180.426 11.9891 181.089 11.9956 181.857L12.0445 187.617L7.59667 187.655L7.55127 182.311C7.53477 180.37 7.81911 178.682 8.40428 177.247C8.96812 175.813 9.82275 174.707 10.9682 173.929C12.1136 173.152 13.561 172.755 15.3102 172.741L15.8222 172.736C17.5502 172.721 18.9935 173.104 20.1521 173.883C21.2893 174.642 22.1519 175.733 22.74 177.158C23.3066 178.561 23.5982 180.233 23.6147 182.174L23.6601 187.518Z" fill="#E4F7FF"/>
<path d="M31.381 165.035L9.87507 153.091L11.4607 144.761L35.9046 141.27L34.8874 146.614L14.283 149.272L15.2543 147.763L14.4824 151.818L14.1453 149.995L32.3623 159.88L31.381 165.035ZM26.7862 158.2L22.8101 155.814L24.5214 146.824L29.1018 146.034L26.7862 158.2Z" fill="#E4F7FF"/>
<path d="M37.6337 135.363L29.0856 123.306L29.6139 123.45L16.2332 125.973L18.3947 120.634L26.8627 119.16L27.1389 118.478L22.0574 111.588L24.1589 106.397L32.0629 117.572L31.5523 117.469L46.0878 114.481L43.9142 119.85L34.2682 121.675L33.98 122.387L39.7352 130.172L37.6337 135.363Z" fill="#E4F7FF"/>
<path d="M50.1719 107.223L30.3595 94.8474L33.072 90.505L52.8844 102.881L50.1719 107.223ZM52.5453 103.424L48.8542 101.118L54.2623 92.4602L57.9534 94.7658L52.5453 103.424ZM44.3218 98.2868L40.6308 95.9811L45.6489 87.9476L49.3399 90.2533L44.3218 98.2868ZM36.424 93.3534L32.7329 91.0478L38.0223 82.58L41.7134 84.8857L36.424 93.3534Z" fill="#E4F7FF"/>
<path d="M66.3067 84.2894L62.6756 81.0052L65.5949 77.7775C66.3247 76.9706 66.8643 76.1355 67.2137 75.2721C67.5473 74.3945 67.7001 73.5259 67.6721 72.6664C67.6282 71.7926 67.3972 70.9508 66.979 70.141C66.545 69.317 65.9403 68.5544 65.1651 67.8532C64.3581 67.1233 63.5309 66.5909 62.6834 66.2558C61.8359 65.9207 60.9831 65.7822 60.1251 65.8404C59.2671 65.8985 58.434 66.1518 57.6258 66.6001C56.8017 67.0342 56.0248 67.6546 55.295 68.4615L52.3757 71.6892L48.7446 68.405L51.4707 65.3909C52.8874 63.8246 54.3546 62.6635 55.8724 61.9077C57.3902 61.1519 58.9024 60.7362 60.409 60.6606C61.9156 60.585 63.3549 60.8225 64.7267 61.3729C66.0971 61.8932 67.3439 62.6614 68.4673 63.6774L68.9894 64.1497C70.0336 65.0941 70.891 66.2292 71.5617 67.5549C72.2309 68.8505 72.619 70.2659 72.7262 71.8011C72.8176 73.3221 72.5791 74.8897 72.0106 76.5042C71.4421 78.1186 70.4495 79.709 69.0328 81.2753L66.3067 84.2894ZM63.2157 87.7069L45.6536 71.8225L49.1739 67.9303L66.736 83.8147L63.2157 87.7069Z" fill="#E4F7FF"/>
<path d="M83.7025 66.5426L69.4063 48.0681L73.4555 44.9347L87.7517 63.4092L83.7025 66.5426ZM87.2456 63.8008L84.5822 60.359L92.6553 54.1117L95.3187 57.5536L87.2456 63.8008ZM81.3117 56.1327L78.6483 52.6908L86.1393 46.894L88.8027 50.3358L81.3117 56.1327ZM75.6127 48.7682L72.9493 45.3264L80.8453 39.2162L83.5087 42.658L75.6127 48.7682Z" fill="#E4F7FF"/>
<path d="M110.163 49.4077C108.301 50.4045 106.574 50.9536 104.983 51.0552C103.382 51.1379 101.98 50.8477 100.778 50.1844C99.5664 49.5023 98.603 48.4936 97.8881 47.1582L102.374 44.757C102.656 45.2836 103.059 45.6971 103.582 45.9975C104.125 46.2878 104.773 46.413 105.526 46.3729C106.268 46.3141 107.119 46.0279 108.079 45.5144C108.944 45.0513 109.607 44.5509 110.07 44.013C110.532 43.4752 110.808 42.9283 110.897 42.3723C110.977 41.7974 110.876 41.2466 110.594 40.72C110.241 40.0617 109.682 39.6955 108.917 39.6214C108.141 39.5285 107.093 39.7628 105.772 40.3245L104.145 41.0141C102.004 41.9422 100.026 42.1786 98.2093 41.7234C96.3927 41.2681 94.9962 40.1282 94.0196 38.3038C93.3148 36.9873 93.0161 35.6833 93.1233 34.3918C93.2493 33.0903 93.7406 31.8836 94.5973 30.7717C95.4439 29.641 96.6383 28.6628 98.1806 27.8373C99.7981 26.9714 101.332 26.5136 102.781 26.4637C104.239 26.3849 105.55 26.6872 106.714 27.3706C107.869 28.0352 108.808 29.0446 109.533 30.3988L105.019 32.8151C104.747 32.3073 104.378 31.9119 103.912 31.629C103.436 31.3273 102.883 31.1757 102.253 31.1741C101.642 31.1625 100.979 31.348 100.265 31.7306C99.5875 32.093 99.0743 32.5129 98.7249 32.9903C98.3943 33.4576 98.2219 33.9492 98.2076 34.465C98.1833 34.962 98.2919 35.4362 98.5336 35.8876C98.8457 36.4706 99.3244 36.8677 99.9697 37.0788C100.615 37.2899 101.428 37.1813 102.409 36.7532L104.064 36.0485C105.639 35.3748 107.141 34.9941 108.571 34.9066C109.99 34.8003 111.261 35.0274 112.383 35.5879C113.515 36.1195 114.423 37.0248 115.108 38.3037C115.812 39.6203 116.084 40.9633 115.921 42.3326C115.768 43.6731 115.207 44.9533 114.239 46.1733C113.27 47.3933 111.912 48.4714 110.163 49.4077Z" fill="#E4F7FF"/>
<path d="M148.259 29.6635L146.624 20.8539L155.119 19.2775L156.754 28.0871L148.259 29.6635Z" fill="#E4F7FF"/>
<path d="M195.494 31.8162L196.15 26.9643L200.463 27.5472C201.541 27.6929 202.535 27.6657 203.445 27.4658C204.357 27.2447 205.16 26.8796 205.853 26.3705C206.549 25.8402 207.113 25.1737 207.544 24.371C207.978 23.547 208.265 22.6171 208.405 21.5812C208.551 20.503 208.523 19.5196 208.32 18.6311C208.117 17.7426 207.749 16.961 207.216 16.2862C206.683 15.6113 206.003 15.0674 205.176 14.6543C204.352 14.22 203.401 13.93 202.323 13.7843L198.01 13.2014L198.666 8.34951L202.693 8.89382C204.786 9.17669 206.574 9.73039 208.055 10.5549C209.537 11.3794 210.735 12.3917 211.649 13.5916C212.563 14.7915 213.181 16.1128 213.503 17.5556C213.848 18.9801 213.92 20.4428 213.717 21.9438L213.622 22.6415C213.434 24.0368 212.982 25.3858 212.268 26.6886C211.578 27.973 210.63 29.0935 209.424 30.05C208.222 30.9853 206.794 31.6749 205.141 32.1189C203.488 32.5628 201.615 32.6433 199.522 32.3605L195.494 31.8162ZM190.928 31.199L194.099 7.73234L199.3 8.43523L196.129 31.9019L190.928 31.199Z" fill="#E4F7FF"/>
<path d="M219.968 36.1304L227.122 13.8929L231.996 15.461L224.842 37.6984L219.968 36.1304ZM224.232 37.5024L225.565 33.3596L235.283 36.486L233.95 40.6288L224.232 37.5024ZM227.202 28.2724L228.535 24.1295L237.552 27.0305L236.219 31.1734L227.202 28.2724ZM230.054 19.4079L231.387 15.265L240.891 18.3228L239.558 22.4657L230.054 19.4079Z" fill="#E4F7FF"/>
<path d="M246.694 46.3261L251.298 22.3478L256.082 24.8687L251.876 44.9334L251.084 43.8287L253.972 45.3502L252.556 45.2914L266.359 30.2835L271.002 32.7298L254.253 50.3088L246.694 46.3261Z" fill="#E4F7FF"/>
<path d="M266.812 58.1264L281.109 39.652L285.158 42.7854L270.862 61.2599L266.812 58.1264ZM270.355 60.8682L273.019 57.4264L281.092 63.6736L278.429 67.1155L270.355 60.8682ZM276.289 53.2L278.953 49.7582L286.444 55.555L283.78 58.9969L276.289 53.2ZM281.988 45.8355L284.652 42.3937L292.548 48.5039L289.884 51.9457L281.988 45.8355Z" fill="#E4F7FF"/>
<path d="M284.93 73.1493L301.891 57.0864L305.5 60.8968L288.539 76.9597L284.93 73.1493ZM288.099 76.495L291.445 73.3265L298.178 80.4361L294.832 83.6047L288.099 76.495Z" fill="#E4F7FF"/>
<path d="M305.655 99.507C304.507 97.7343 303.808 95.9883 303.559 94.269C303.339 92.556 303.452 90.945 303.898 89.4361C304.362 87.9156 305.046 86.5578 305.949 85.3626C306.864 84.1854 307.868 83.2431 308.96 82.5357L309.551 82.153C310.769 81.3644 312.107 80.8022 313.567 80.4666C315.057 80.1372 316.57 80.0981 318.105 80.3493C319.64 80.6004 321.117 81.194 322.537 82.1301C323.974 83.0545 325.25 84.3762 326.363 86.0952C327.476 87.8141 328.161 89.5185 328.416 91.2084C328.69 92.8866 328.627 94.4775 328.229 95.9812C327.83 97.4848 327.176 98.8489 326.266 100.074C325.374 101.287 324.32 102.287 323.102 103.076L322.511 103.459C321.419 104.166 320.143 104.688 318.682 105.023C317.222 105.359 315.704 105.428 314.126 105.229C312.567 105.019 311.045 104.454 309.56 103.535C308.105 102.622 306.803 101.28 305.655 99.507ZM309.764 96.8455C310.367 97.7766 311.068 98.5049 311.865 99.0303C312.675 99.5736 313.534 99.9193 314.443 100.068C315.364 100.234 316.288 100.207 317.214 99.9889C318.14 99.7704 319.033 99.3828 319.892 98.8262C320.805 98.2347 321.545 97.5522 322.112 96.7787C322.708 96.0114 323.109 95.1794 323.316 94.2828C323.553 93.3924 323.586 92.4816 323.415 91.5503C323.244 90.619 322.857 89.6878 322.254 88.7567C321.651 87.8256 320.959 87.0915 320.179 86.5545C319.399 86.0175 318.549 85.666 317.628 85.4999C316.737 85.3401 315.819 85.3753 314.875 85.6054C313.949 85.8239 313.029 86.2288 312.116 86.8203C311.257 87.3769 310.538 88.0331 309.96 88.7887C309.382 89.5444 308.974 90.3674 308.738 91.2578C308.513 92.1661 308.477 93.0917 308.63 94.0345C308.783 94.9774 309.161 95.9144 309.764 96.8455Z" fill="#E4F7FF"/>
<path d="M324.551 119.446L328.774 117.768L330.322 121.664C330.621 122.417 331.026 123.003 331.536 123.42C332.054 123.857 332.64 124.118 333.293 124.203C333.966 124.279 334.66 124.176 335.374 123.893C336.127 123.593 336.712 123.189 337.129 122.679C337.566 122.161 337.813 121.569 337.87 120.904C337.955 120.25 337.848 119.547 337.549 118.793L336.001 114.897L340.224 113.22L341.677 116.878C342.41 118.722 342.728 120.42 342.634 121.973C342.547 123.545 342.076 124.903 341.222 126.046C340.375 127.208 339.159 128.105 337.573 128.735L337.097 128.924C335.55 129.538 334.06 129.717 332.627 129.46C331.221 129.215 329.947 128.55 328.805 127.466C327.67 126.402 326.737 124.948 326.004 123.104L324.551 119.446ZM316.635 117.632L338.523 108.937L340.46 113.815L318.572 122.51L316.635 117.632Z" fill="#E4F7FF"/>
<path d="M333.078 145.721L337.53 144.813L338.368 148.921C338.53 149.715 338.825 150.362 339.254 150.863C339.687 151.384 340.217 151.744 340.846 151.942C341.495 152.136 342.196 152.157 342.948 152.003C343.743 151.841 344.39 151.546 344.89 151.117C345.412 150.684 345.759 150.145 345.932 149.5C346.131 148.872 346.149 148.161 345.987 147.366L345.149 143.259L349.601 142.351L350.388 146.208C350.785 148.152 350.799 149.879 350.433 151.391C350.071 152.924 349.368 154.177 348.326 155.152C347.288 156.148 345.933 156.816 344.261 157.157L343.759 157.259C342.129 157.592 340.63 157.505 339.265 157C337.924 156.512 336.787 155.633 335.853 154.365C334.924 153.117 334.261 151.522 333.864 149.578L333.078 145.721ZM325.604 142.543L348.681 137.836L349.729 142.978L326.652 147.685L325.604 142.543Z" fill="#E4F7FF"/>
<path d="M329.974 168.675L353.32 167.879L353.495 172.996L330.149 173.792L329.974 168.675ZM330.127 173.153L334.476 173.004L334.824 183.207L330.475 183.355L330.127 173.153ZM339.817 172.822L344.167 172.674L344.49 182.14L340.14 182.289L339.817 172.822ZM349.124 172.505L353.473 172.356L353.814 182.335L349.464 182.483L349.124 172.505Z" fill="#E4F7FF"/>
<path d="M328.182 201.774C328.495 199.599 329.162 197.809 330.183 196.404C331.222 195.023 332.547 194.05 334.159 193.484C335.771 192.918 337.601 192.783 339.649 193.077L353.364 195.05L352.617 200.244L338.712 198.245C337.698 198.099 336.784 198.161 335.969 198.432C335.172 198.727 334.522 199.205 334.017 199.865C333.51 200.546 333.18 201.415 333.028 202.471C332.873 203.547 332.945 204.474 333.243 205.249C333.538 206.046 334.028 206.688 334.712 207.174C335.396 207.66 336.256 207.978 337.291 208.127L351.196 210.127L350.448 215.321L336.734 213.349C334.685 213.054 332.968 212.408 331.581 211.412C330.194 210.415 329.197 209.107 328.589 207.49C328.002 205.875 327.866 203.97 328.182 201.774Z" fill="#E4F7FF"/>
<path d="M325.015 221.142L347.249 228.911L345.518 233.865L323.284 226.097L325.015 221.142ZM320.339 234.525L332.084 231.375L330.184 236.812L318.334 240.265L320.339 234.525ZM330.817 227.237L334.714 228.599L332.814 234.037C332.561 234.762 332.484 235.435 332.583 236.057C332.695 236.707 332.964 237.264 333.389 237.729C333.827 238.221 334.399 238.59 335.103 238.836C335.808 239.082 336.475 239.146 337.104 239.027C337.747 238.935 338.304 238.666 338.776 238.221C339.261 237.803 339.63 237.232 339.883 236.507L341.783 231.069L345.982 232.536L344.22 237.581C343.579 239.414 342.741 240.906 341.706 242.058C340.691 243.218 339.513 243.97 338.172 244.315C336.831 244.66 335.335 244.544 333.684 243.967L333.2 243.798C331.569 243.228 330.34 242.381 329.513 241.255C328.698 240.157 328.255 238.839 328.183 237.299C328.124 235.787 328.414 234.115 329.055 232.282L330.817 227.237Z" fill="#E4F7FF"/>
<path d="M307.229 261.22L329.398 270.569L326.164 274.904L307.563 266.659L308.823 266.201L307.082 268.535L307.238 267.095L320.363 281.236L317.761 284.725L302.465 267.607L307.229 261.22ZM298.906 272.378L319.885 281.878L317.149 285.546L299.527 277.432L300.844 276.897L299.18 279.129L299.221 277.842L312.771 292.86L309.71 296.964L294.046 278.893L298.906 272.378Z" fill="#E4F7FF"/>
<path d="M284.534 288.56L299.941 306.119L296.092 309.496L280.685 291.937L284.534 288.56ZM281.166 291.515L284.037 294.786L276.364 301.519L273.493 298.248L281.166 291.515ZM287.561 298.803L290.432 302.074L283.312 308.322L280.442 305.05L287.561 298.803ZM293.703 305.803L296.573 309.074L289.069 315.659L286.198 312.388L293.703 305.803Z" fill="#E4F7FF"/>
<path d="M262.535 305.763L264.675 309.256L260.01 312.115C259.173 312.628 258.679 313.231 258.528 313.924C258.378 314.617 258.547 315.363 259.038 316.163C259.528 316.964 260.111 317.445 260.786 317.607C261.472 317.787 262.233 317.621 263.07 317.108L267.735 314.248L269.391 316.949L264.943 319.675C263.561 320.522 262.227 321.102 260.943 321.414C259.669 321.745 258.494 321.726 257.419 321.36C256.343 320.993 255.415 320.173 254.635 318.9L254.401 318.518C253.676 317.335 253.325 316.15 253.346 314.96C253.379 313.789 253.784 312.653 254.56 311.552C255.347 310.469 256.523 309.448 258.088 308.489L262.535 305.763ZM266.354 303.422L278.745 323.639L274.38 326.315L261.989 306.098L266.354 303.422ZM268.17 314.958L269.809 317.632L265.88 320.039C265.025 320.563 264.54 321.161 264.426 321.831C264.312 322.502 264.477 323.201 264.923 323.929C265.391 324.693 265.95 325.176 266.6 325.378C267.249 325.581 268.002 325.42 268.856 324.896L272.785 322.488L274.926 325.98L271.27 328.221C268.978 329.626 266.927 330.219 265.118 330.002C263.29 329.796 261.83 328.802 260.737 327.02L260.487 326.61C259.729 325.373 259.439 324.187 259.619 323.051C259.78 321.926 260.297 320.871 261.17 319.886C262.035 318.931 263.15 318.035 264.514 317.199L268.17 314.958Z" fill="#E4F7FF"/>
<path d="M227.392 332.015L228.819 340.861L220.289 342.237L218.862 333.391L227.392 332.015Z" fill="#E4F7FF"/>
<circle cx="179" cy="184" r="133.5" fill="#0A1724" stroke="#E4F7FF"/>
<path d="M257.192 185.146C257.192 174.861 244.317 165.114 224.578 159.07C229.134 138.943 227.109 122.93 218.189 117.804C216.132 116.601 213.728 116.032 211.103 116.032V123.089C212.558 123.089 213.728 123.373 214.709 123.911C219.011 126.38 220.877 135.779 219.422 147.867C219.074 150.842 218.505 153.975 217.809 157.171C211.609 155.652 204.839 154.481 197.722 153.722C193.451 147.867 189.023 142.551 184.562 137.899C194.875 128.31 204.555 123.057 211.134 123.057V116C202.435 116 191.047 122.203 179.533 132.962C168.018 122.266 156.63 116.127 147.931 116.127V123.184C154.479 123.184 164.191 128.405 174.503 137.931C170.075 142.582 165.646 147.867 161.439 153.722C154.29 154.481 147.52 155.652 141.32 157.203C140.592 154.038 140.055 150.969 139.675 148.025C138.188 135.937 140.023 126.538 144.294 124.038C145.242 123.468 146.476 123.215 147.931 123.215V116.158C145.274 116.158 142.87 116.728 140.782 117.93C131.893 123.057 129.9 139.038 134.487 159.101C114.811 165.177 102 174.893 102 185.146C102 195.431 114.875 205.178 134.614 211.222C130.059 231.349 132.083 247.361 141.004 252.488C143.06 253.691 145.464 254.26 148.121 254.26C156.82 254.26 168.208 248.058 179.723 237.298C191.237 247.994 202.625 254.134 211.324 254.134C213.981 254.134 216.385 253.564 218.473 252.362C227.362 247.235 229.355 231.254 224.768 211.19C244.381 205.146 257.192 195.399 257.192 185.146ZM216.006 164.038C214.835 168.121 213.38 172.329 211.735 176.538C210.438 174.007 209.078 171.475 207.591 168.943C206.136 166.412 204.586 163.943 203.036 161.538C207.528 162.203 211.862 163.026 216.006 164.038ZM201.518 197.741C199.05 202.013 196.52 206.064 193.894 209.83C189.181 210.241 184.404 210.463 179.596 210.463C174.819 210.463 170.043 210.241 165.361 209.861C162.736 206.095 160.173 202.076 157.706 197.836C155.302 193.69 153.119 189.481 151.126 185.241C153.088 181 155.302 176.76 157.674 172.614C160.142 168.342 162.672 164.291 165.298 160.526C170.011 160.114 174.788 159.893 179.596 159.893C184.373 159.893 189.149 160.114 193.831 160.494C196.457 164.26 199.019 168.279 201.486 172.519C203.89 176.665 206.073 180.874 208.066 185.114C206.073 189.355 203.89 193.595 201.518 197.741ZM211.735 193.627C213.444 197.868 214.899 202.108 216.101 206.222C211.957 207.235 207.591 208.089 203.068 208.754C204.618 206.317 206.168 203.817 207.623 201.254C209.078 198.722 210.438 196.159 211.735 193.627ZM179.659 227.393C176.717 224.355 173.776 220.969 170.865 217.266C173.712 217.393 176.623 217.488 179.564 217.488C182.538 217.488 185.48 217.425 188.358 217.266C185.511 220.969 182.57 224.355 179.659 227.393ZM156.124 208.754C151.632 208.089 147.299 207.266 143.155 206.254C144.325 202.171 145.78 197.962 147.425 193.754C148.722 196.285 150.082 198.817 151.569 201.349C153.056 203.88 154.574 206.349 156.124 208.754ZM179.501 142.899C182.443 145.937 185.385 149.323 188.295 153.026C185.448 152.899 182.538 152.804 179.596 152.804C176.623 152.804 173.681 152.867 170.802 153.026C173.649 149.323 176.591 145.937 179.501 142.899ZM156.093 161.538C154.543 163.975 152.993 166.475 151.537 169.038C150.082 171.57 148.722 174.102 147.425 176.633C145.717 172.393 144.262 168.152 143.06 164.038C147.204 163.057 151.569 162.203 156.093 161.538ZM127.465 201.159C116.267 196.38 109.023 190.114 109.023 185.146C109.023 180.178 116.267 173.88 127.465 169.133C130.185 167.962 133.159 166.918 136.227 165.937C138.03 172.14 140.403 178.595 143.345 185.209C140.434 191.792 138.093 198.216 136.322 204.387C133.19 203.406 130.217 202.33 127.465 201.159ZM144.483 246.38C140.181 243.912 138.315 234.513 139.77 222.425C140.118 219.45 140.687 216.317 141.383 213.121C147.583 214.64 154.353 215.811 161.47 216.57C165.741 222.425 170.169 227.741 174.63 232.393C164.317 241.982 154.638 247.235 148.058 247.235C146.634 247.203 145.432 246.918 144.483 246.38ZM219.517 222.266C221.004 234.355 219.169 243.754 214.899 246.254C213.95 246.823 212.716 247.077 211.261 247.077C204.713 247.077 195.001 241.855 184.689 232.33C189.118 227.678 193.546 222.393 197.754 216.539C204.903 215.779 211.672 214.608 217.872 213.057C218.6 216.254 219.169 219.323 219.517 222.266ZM231.696 201.159C228.975 202.33 226.002 203.374 222.933 204.355C221.13 198.152 218.758 191.697 215.816 185.083C218.726 178.5 221.067 172.076 222.839 165.905C225.97 166.886 228.944 167.962 231.727 169.133C242.926 173.912 250.17 180.178 250.17 185.146C250.138 190.114 242.894 196.412 231.696 201.159Z" fill="#61DAFB"/>
<path d="M179.564 199.608C187.549 199.608 194.021 193.133 194.021 185.146C194.021 177.159 187.549 170.684 179.564 170.684C171.58 170.684 165.108 177.159 165.108 185.146C165.108 193.133 171.58 199.608 179.564 199.608Z" fill="#61DAFB"/>
</svg>
