<svg width="1290" height="1241" viewBox="0 0 1290 1241" fill="none" xmlns="http://www.w3.org/2000/svg">
<g filter="url(#filter0_f_19_7)">
<ellipse cx="636.704" cy="647.046" rx="230.5" ry="178" fill="#072843"/>
</g>
<path d="M603.326 409.224L604.875 408.809L625.893 487.25L625.114 487.459C562.872 504.137 525.798 568.32 542.472 630.547L540.923 630.962C524.09 568.142 561.289 503.342 623.929 486.116L603.326 409.224Z" fill="#00E1FF" fill-opacity="0.25"/>
<path d="M768.026 569.285L846.492 548.26L846.906 549.804L769.989 570.414C786.375 633.257 748.848 697.859 686.012 714.696L685.597 713.146C747.839 696.468 784.907 632.286 768.233 570.06L768.026 569.285Z" fill="#00E1FF" fill-opacity="0.25"/>
<path d="M845.139 549.448L848.248 548.614C855.219 574.629 856.874 601.254 853.185 627.752C853.054 628.693 852.913 629.636 852.771 630.575L849.596 630.094C849.742 629.171 849.878 628.25 850.002 627.322C853.634 601.254 852 575.055 845.14 549.453L845.139 549.448ZM845.575 649.601L848.692 650.406C847.134 656.404 845.275 662.386 843.163 668.209L840.136 667.111C842.21 661.39 844.037 655.492 845.575 649.601ZM684.244 714.334L687.353 713.501L688.488 717.737L685.379 718.57L684.244 714.334ZM829.713 690.82L832.566 692.309C831.206 694.922 829.763 697.546 828.287 700.104C815.327 722.551 798.428 741.972 778.058 757.832C777.1 758.584 776.111 759.34 775.142 760.069L773.213 757.501C774.179 756.779 775.141 756.041 776.082 755.309C796.123 739.689 812.757 720.587 825.512 698.502C826.965 695.977 828.377 693.399 829.726 690.827L829.713 690.82ZM690.581 737.984L693.69 737.151L707.744 789.602C715.566 787.442 723.279 784.793 730.691 781.728L731.924 784.698C723.89 788.021 715.515 790.853 707.028 793.127L705.468 793.545L690.578 737.974L690.581 737.984Z" fill="#00E1FF" fill-opacity="0.25"/>
<path d="M662.115 247.692L663.61 247.879C684.324 248.352 705.154 250.691 725.529 254.829C745.586 258.908 765.412 264.784 784.454 272.277L785.768 272.793L785.269 274.113L674.197 555.959L672.893 555.457C667.618 553.381 662.152 552.258 656.624 552.132L655.273 552.225L655.16 550.675L662.117 247.702L662.115 247.692ZM782.131 274.393C763.632 267.196 744.407 261.553 724.971 257.594C705.199 253.575 684.984 251.259 664.864 250.729L658.006 549.363C662.964 549.614 667.864 550.614 672.6 552.332L782.128 274.383L782.131 274.393ZM304.038 567.371L305.727 567.555L607.522 594.606L607.348 596.049C607.109 598.82 607.103 601.474 607.331 604.158C607.575 607.02 608.075 609.83 608.851 612.766C610.335 618.267 612.575 623.145 615.69 627.687L616.679 628.781L615.384 629.742L366.49 802.236L365.558 801.154C354.223 784.807 344.186 767.314 335.732 749.143C327.132 730.65 320.101 711.273 314.817 691.552C309.429 671.444 305.781 650.729 304.03 629.986C302.304 609.678 302.346 589.15 304.156 568.957L304.048 567.368L304.038 567.371ZM604.44 597.152L306.834 570.482C305.147 590.103 305.137 610.03 306.813 629.747C308.563 650.323 312.164 670.867 317.523 690.827C322.766 710.392 329.732 729.609 338.26 747.953C346.45 765.559 356.135 782.526 367.064 798.4L612.641 628.202C609.714 623.696 607.581 618.876 606.127 613.49C605.297 610.391 604.775 607.415 604.514 604.39C604.304 601.998 604.277 599.622 604.435 597.153L604.44 597.152ZM703.367 596.041L704.782 595.926L1007.23 576.566L1007.25 578.022C1008.57 598.794 1008.04 619.814 1005.65 640.484C1003.32 660.781 999.185 680.997 993.348 700.587L993.101 701.796L991.697 701.649L991.558 701.611L701.046 615.19L701.598 613.807C703.182 608.449 703.799 602.946 703.457 597.44L703.367 596.041ZM1004.52 579.56L706.335 598.643C706.503 603.58 705.946 608.501 704.656 613.328L991.031 698.517C996.628 679.483 1000.61 659.857 1002.87 640.168C1005.18 620.106 1005.73 599.731 1004.53 579.57L1004.52 579.56Z" fill="#00E1FF" fill-opacity="0.25"/>
<path d="M515.858 305.214L516.362 306.109L589.711 458.187L588.798 458.664C572.593 466.484 557.954 476.99 545.315 489.888C532.885 502.563 522.756 517.161 515.193 533.288L514.78 534.342L513.786 533.794L360.944 462.157L361.328 461.196C369.108 444.612 378.335 428.579 388.773 413.542C399.244 398.448 411.072 384.133 423.93 371.004C436.923 357.736 451.158 345.499 466.222 334.647C481.561 323.597 497.975 313.84 514.999 305.633L515.868 305.212L515.858 305.214ZM587.039 457.269L514.977 307.866C498.362 315.947 482.364 325.485 467.387 336.281C452.415 347.071 438.266 359.225 425.357 372.406C412.574 385.451 400.819 399.676 390.416 414.682C380.232 429.359 371.203 444.984 363.563 461.147L513.784 531.552C521.403 515.572 531.527 501.077 543.882 488.466C556.463 475.631 570.987 465.14 587.049 457.267L587.039 457.269ZM767.685 711.01L768.306 711.679L886.64 832.098L885.928 832.839C866.318 852.123 844.247 868.88 820.342 882.657C795.723 896.829 769.305 907.747 741.806 915.115L741.651 915.157C723.952 919.899 705.795 923.174 687.671 924.897L686.627 924.967L686.551 923.979L670.611 755.823L671.656 755.758C680.348 754.934 689.117 753.35 697.7 751.05C724.17 743.93 747.43 730.683 766.844 711.655L766.95 711.568L767.697 711.017L767.685 711.01ZM883.818 832.088L767.539 713.766C748.023 732.675 724.698 745.859 698.209 752.989C689.842 755.231 681.302 756.803 672.795 757.653L688.444 922.792C706.125 921.063 723.841 917.837 741.117 913.208L741.273 913.166C768.606 905.842 794.867 894.983 819.318 880.909C842.799 867.381 864.492 850.962 883.813 832.09L883.818 832.088Z" fill="#00E1FF" fill-opacity="0.25"/>
<path d="M578.052 311.018C591.037 307.539 604.237 304.945 617.59 303.244L618.415 303.142L620.649 320.757L619.825 320.86C593.533 324.2 567.829 331.265 543.436 341.851L542.667 342.181L535.604 325.902L536.371 325.567C549.921 319.688 563.855 314.822 578.062 311.015L578.052 311.018ZM616.969 305.012C589.732 308.546 563.106 315.87 537.798 326.765L543.535 339.986C567.601 329.628 592.907 322.669 618.786 319.299L616.969 305.012ZM492.269 349.252L501.982 364.109L501.273 364.563C477.134 380.344 455.637 399.627 437.389 421.857L436.849 422.498L423.125 411.245L423.659 410.6C443.058 386.972 465.899 366.487 491.556 349.708L492.259 349.255L492.269 349.252ZM499.67 363.629L491.779 351.567C466.779 367.999 444.48 387.993 425.49 411.016L436.635 420.151C454.694 398.278 475.901 379.261 499.67 363.629ZM683.319 302.218L684.155 302.296C692.538 303.118 701.014 304.303 709.345 305.834L709.391 305.844C731.112 309.815 752.361 316.168 772.535 324.711L773.303 325.039L766.37 341.385L765.604 341.062C746.637 333.02 726.637 327.04 706.164 323.3C698.312 321.866 690.332 320.742 682.432 319.974L681.595 319.891L683.322 302.228L683.319 302.218ZM709.042 307.479C701.029 306.008 692.891 304.856 684.817 304.043L683.425 318.387C691.1 319.162 698.847 320.262 706.451 321.654C726.778 325.374 746.626 331.271 765.487 339.196L771.114 325.928C751.287 317.593 730.412 311.389 709.058 307.48L709.195 306.662L709.043 307.484L709.042 307.479ZM408.003 431.478L422.689 441.455L422.213 442.154C418.869 447.078 415.636 452.177 412.607 457.313L412.18 458.036L396.882 449.017L397.308 448.293C400.523 442.843 403.954 437.416 407.522 432.179L407.998 431.48L408.003 431.478ZM420.371 441.898L408.454 433.806C405.228 438.568 402.121 443.477 399.186 448.421L411.606 455.732C414.381 451.057 417.32 446.409 420.371 441.898ZM816.841 348.071L817.54 348.526C841.223 363.786 862.652 382.341 881.212 403.675L881.764 404.304L868.363 415.95L867.812 415.322C850.346 395.257 830.197 377.794 807.926 363.439L807.224 362.991L816.845 348.065L816.841 348.071ZM879.402 404.144C861.253 383.4 840.377 365.317 817.342 350.385L809.53 362.502C831.428 376.693 851.268 393.889 868.52 413.6L879.392 404.147L879.402 404.144ZM387.801 465.739L403.69 473.662L403.319 474.409C391.524 498.043 383.094 523.331 378.285 549.574C377.496 553.894 376.792 558.31 376.195 562.682L376.082 563.51L358.488 561.117L358.602 560.294C359.228 555.667 359.979 550.985 360.82 546.376C365.93 518.499 374.883 491.621 387.43 466.485L387.801 465.739ZM401.443 474.41L388.545 467.971C376.264 492.75 367.489 519.225 362.454 546.677C361.662 550.987 360.957 555.36 360.353 559.685L374.634 561.628C375.212 557.504 375.877 553.347 376.62 549.276C381.408 523.157 389.754 497.978 401.438 474.411L401.443 474.41ZM356.562 580.047L374.283 581.225L374.23 582.053C372.47 608.569 374.479 635.142 380.196 661.028L380.377 661.843L363.033 665.676L362.858 664.86C356.77 637.331 354.63 609.078 356.499 580.878L356.552 580.05L356.562 580.047ZM372.51 582.778L358.133 581.826C356.386 609.314 358.465 636.834 364.324 663.691L378.398 660.577C372.841 635.068 370.861 608.903 372.51 582.778ZM918.677 457.667L919.068 458.404C933.625 485.405 943.905 514.313 949.617 544.321L949.778 545.145L932.329 548.462L932.168 547.642C926.8 519.419 917.124 492.221 903.427 466.822L903.035 466.081L918.664 457.66L918.677 457.667ZM947.819 543.81C942.159 514.538 932.13 486.323 917.995 459.932L905.311 466.77C918.749 491.866 928.279 518.678 933.667 546.513L947.822 543.82L947.819 543.81ZM394.17 705.915L394.485 706.688C405.375 733.324 420.233 758.066 438.637 780.246L439.175 780.884L425.502 792.22L424.97 791.581C405.417 768.011 389.628 741.706 378.045 713.411L377.73 712.639L394.17 705.915ZM436.816 780.675C418.722 758.746 404.076 734.33 393.251 708.097L379.91 713.548C391.288 741.142 406.698 766.815 425.718 789.866L436.814 780.665L436.816 780.675ZM937.062 594.401L954.82 594.108L954.838 594.939C955.163 614.684 953.516 634.639 949.918 654.232C948.426 662.37 946.58 670.532 944.44 678.482L944.22 679.29L927.068 674.666L927.29 673.862C929.302 666.378 931.037 658.688 932.442 651.032C935.826 632.59 937.38 613.819 937.07 595.235L937.051 594.399L937.062 594.401ZM953.172 595.806L938.76 596.049C939.022 614.474 937.447 633.067 934.091 651.35C932.733 658.778 931.053 666.232 929.12 673.507L943.038 677.256C945.076 669.608 946.836 661.766 948.272 653.946C951.791 634.74 953.443 615.188 953.175 595.816L953.172 595.806ZM455.077 798.396L455.667 798.987C459.866 803.206 464.25 807.353 468.709 811.297L469.339 811.856L457.559 825.144L456.924 824.586C452.198 820.391 447.525 815.992 443.069 811.497L442.481 810.911L455.077 798.396ZM466.967 812.001C462.913 808.38 458.915 804.609 455.075 800.764L444.851 810.923C448.911 814.984 453.133 818.97 457.419 822.793L466.98 812.008L466.967 812.001ZM921.845 691.697L938.63 697.487L938.361 698.276C936.299 704.264 934.009 710.248 931.577 716.082L931.25 716.854L914.872 710.005L915.193 709.229C917.489 703.751 919.635 698.118 921.577 692.486L921.845 691.697ZM936.502 698.521L922.878 693.819C921.089 698.957 919.132 704.087 917.055 709.097L930.346 714.648C932.541 709.358 934.611 703.94 936.499 698.511L936.502 698.521ZM483.073 823.209L483.737 823.716C504.796 839.906 528.008 853.001 552.74 862.636L553.522 862.939L547.073 879.479L546.297 879.18C519.994 868.935 495.308 855.006 472.917 837.788L472.248 837.282L483.083 823.206L483.073 823.209ZM551.346 863.894C527.015 854.329 504.16 841.435 483.378 825.554L474.587 836.979C496.451 853.697 520.505 867.262 546.112 877.321L551.346 863.894ZM904.761 731.371L920.459 739.669L920.071 740.415C905.772 767.421 887.432 792.027 865.551 813.538L864.951 814.119L852.501 801.462L853.101 800.881C873.672 780.638 890.929 757.508 904.369 732.102L904.758 731.361L904.761 731.371ZM918.198 740.367L905.458 733.632C892.12 758.651 875.103 781.473 854.864 801.487L864.966 811.759C886.261 790.697 904.164 766.693 918.188 740.369L918.198 740.367ZM597.844 875.996L598.664 876.159C600.615 876.558 602.6 876.943 604.575 877.309C631.02 882.15 657.862 883.218 684.352 880.493L685.185 880.405L687.006 898.067L686.176 898.149C658.008 901.048 629.484 899.919 601.38 894.767C599.283 894.385 597.166 893.971 595.097 893.555L594.276 893.387L597.844 875.996ZM683.692 882.239C657.316 884.88 630.598 883.773 604.278 878.957C602.572 878.649 600.854 878.316 599.151 877.975L596.257 892.09C598.049 892.457 599.873 892.804 601.686 893.132C629.361 898.194 657.447 899.355 685.184 896.581L683.71 882.245L683.692 882.239ZM816.918 830.98L827.067 845.553L826.376 846.035C803.174 862.173 777.881 874.935 751.173 883.985L750.382 884.256L744.686 867.444L745.481 867.171C770.598 858.662 794.406 846.653 816.233 831.46L816.918 830.98ZM824.734 845.137L816.503 833.313C794.961 848.203 771.516 860.033 746.803 868.483L751.426 882.132C777.428 873.245 802.08 860.805 824.734 845.137ZM708.578 876.93L709.397 876.77C715.228 875.628 721.095 874.282 726.843 872.774L727.653 872.557L732.163 889.731L731.358 889.946C725.24 891.542 718.999 892.983 712.808 894.189L711.989 894.349L708.578 876.93ZM726.46 874.603C721.203 875.973 715.862 877.189 710.543 878.248L713.309 892.394C718.926 891.282 724.574 889.985 730.123 888.536L726.46 874.603Z" fill="#00E1FF" fill-opacity="0.25"/>
<path d="M618.533 464.106C623.161 462.866 627.884 461.859 632.688 461.074C642.469 459.483 652.397 458.904 662.211 459.369L663.021 459.411L662.183 477.073L661.375 477.036C652.794 476.624 644.091 477.128 635.536 478.525C616.466 481.629 598.911 488.878 583.346 500.074L582.696 500.545L572.362 486.189L573.013 485.718C586.896 475.732 602.151 468.49 618.536 464.1L618.533 464.106ZM661.328 460.943C651.886 460.556 642.344 461.128 632.945 462.655C611.657 466.116 592.036 474.166 574.592 486.562L583.045 498.306C598.652 487.227 616.217 480.035 635.267 476.936C643.673 475.568 652.205 475.051 660.639 475.395L661.326 460.933L661.328 460.943ZM552.679 503.546L565.625 515.601L565.077 516.19C561.172 520.391 557.525 524.894 554.235 529.599L553.769 530.253L539.271 520.118L539.732 519.461C543.496 514.09 547.664 508.94 552.133 504.146L552.682 503.557L552.679 503.546ZM563.359 515.675L552.762 505.81C548.736 510.184 544.958 514.857 541.518 519.71L553.382 528.005C556.435 523.704 559.789 519.559 563.359 515.675ZM712.499 471.286L713.24 471.616C726.516 477.597 738.767 485.567 749.628 495.291C760.576 505.099 769.878 516.491 777.268 529.14L777.67 529.835L762.393 538.765L761.99 538.065C749.161 516.106 729.262 498.23 705.972 487.739L705.236 487.408L712.499 471.286ZM775.461 529.257C768.227 517.03 759.169 506.004 748.54 496.483C737.999 487.046 726.154 479.285 713.304 473.405L707.356 486.602C730.394 497.161 750.092 514.853 762.961 536.559L775.461 529.257ZM529.173 537.145L545.03 544.99L544.675 545.716C533.227 568.858 529.382 594.595 533.538 620.167L533.664 620.958L516.195 623.8L516.059 623.012C511.306 593.782 515.712 564.342 528.797 537.876L529.153 537.15L529.173 537.145ZM542.879 545.718L529.906 539.299C517.353 565.035 513.088 593.569 517.542 621.946L531.829 619.622C527.861 594.248 531.677 568.729 542.884 545.716L542.879 545.718ZM786.327 547.655L786.629 548.399C789.027 554.491 791.022 560.81 792.556 567.198L792.75 567.982L775.548 572.122L775.359 571.337C774.018 565.749 772.271 560.216 770.178 554.899L769.881 554.154L786.34 547.662L786.327 547.655ZM790.798 566.796C789.377 561.008 787.567 555.281 785.426 549.746L771.956 555.054C773.852 559.959 775.461 565.039 776.729 570.172L790.808 566.793L790.798 566.796ZM539.319 642.424L539.595 643.175C549.183 669.157 567.586 691.412 591.419 705.861L592.112 706.274L582.933 721.4L582.245 720.986C555 704.469 533.965 679.009 522.995 649.3L522.719 648.549L539.319 642.424ZM589.896 706.819C566.319 692.318 548.064 670.233 538.367 644.485L524.78 649.501C535.604 678.306 556.022 703.009 582.387 719.201L589.886 706.822L589.896 706.819ZM778.681 594.663L796.353 593.945L796.386 594.755C797.036 610.822 794.94 626.746 790.182 642.094C785.537 657.034 778.475 671.026 769.192 683.694L768.714 684.345L754.444 673.891L754.923 673.244C771.379 650.783 779.831 623.164 778.708 595.47L778.681 594.663ZM794.817 595.618L780.349 596.2C781.283 623.713 772.902 651.113 756.7 673.534L768.373 682.085C777.32 669.734 784.138 656.121 788.656 641.608C793.288 626.698 795.365 611.227 794.817 595.618ZM612.622 716.108L613.376 716.386C618.773 718.337 624.35 719.932 629.96 721.109L630.752 721.269L627.103 738.579L626.314 738.413C619.899 737.069 613.511 735.244 607.341 733.004L606.587 732.726L612.619 716.098L612.622 716.108ZM628.841 722.509C623.688 721.388 618.558 719.931 613.581 718.159L608.648 731.764C614.268 733.763 620.042 735.408 625.863 736.668L628.851 722.506L628.841 722.509ZM647.742 723.5L648.55 723.537C657.402 724.012 666.363 723.53 675.204 722.094C691.808 719.381 707.359 713.489 721.436 704.567L722.119 704.136L731.595 719.078L730.912 719.504C714.813 729.717 697.022 736.468 678.055 739.555C667.969 741.195 657.723 741.752 647.6 741.202L646.791 741.16L647.752 723.497L647.742 723.5ZM687.934 721.002C683.844 722.098 679.682 722.986 675.456 723.676C666.77 725.087 657.965 725.592 649.256 725.186L648.471 739.642C658.217 740.115 668.072 739.545 677.781 737.968C696.268 734.961 713.613 728.437 729.358 718.578L721.603 706.356C711.125 712.911 699.839 717.822 687.931 721.013L687.934 721.002Z" fill="#00E1FF" fill-opacity="0.25"/>
<path d="M625.696 489.633C645.205 484.405 665.776 484.404 685.17 489.652L684.011 493.92C665.375 488.884 645.6 488.877 626.84 493.904C617.367 496.442 608.302 500.203 599.901 505.091L597.679 501.265C606.41 496.18 615.835 492.275 625.696 489.633ZM576.411 517.219L579.458 520.42C575.096 524.565 571.046 529.112 567.416 533.934L563.883 531.274C567.658 526.267 571.875 521.54 576.411 517.219ZM553.057 548.647L557.006 550.646C544.763 574.842 541.898 602.608 548.923 628.824L544.647 629.97C537.34 602.702 540.326 573.82 553.057 548.647ZM729.461 512.875C747.329 527.984 759.982 547.958 766.059 570.637C767.279 575.19 768.228 579.859 768.878 584.499L764.497 585.113C763.868 580.655 762.951 576.166 761.777 571.784C755.934 549.975 743.774 530.776 726.595 516.248L729.453 512.867L729.461 512.875ZM553.886 643.282C556.228 648.844 559.054 654.239 562.281 659.317L558.543 661.688C555.189 656.397 552.252 650.789 549.808 645.005L553.886 643.282ZM765.484 604.756L769.905 604.935C769.659 611.202 768.874 617.489 767.592 623.629L763.263 622.729C764.502 616.827 765.247 610.772 765.494 604.753L765.484 604.756ZM574.265 674.924C592.673 694.887 617.679 707.334 644.655 709.968L644.223 714.37C616.167 711.632 590.166 698.691 571.009 677.926L574.268 674.934L574.265 674.924ZM755.154 646.977L759.156 648.854C752.78 662.468 743.951 674.513 732.922 684.667C721.578 695.115 708.437 703.041 693.869 708.217L692.387 704.058C720.255 694.143 742.55 673.875 755.156 646.987L755.154 646.977Z" fill="#00E1FF" fill-opacity="0.25"/>
<path d="M346.334 381.292L536.15 514.165L534.878 515.978C488.362 582.39 504.555 674.256 570.978 720.753C603.154 743.276 642.191 751.926 680.867 745.1C719.56 738.274 753.275 716.796 775.809 684.622C798.339 652.45 806.997 613.426 800.177 574.754C793.356 536.076 771.875 502.373 739.7 479.85L742.239 476.226C758.989 487.946 772.942 502.61 783.708 519.79C794.108 536.387 801.107 554.619 804.527 573.982C807.939 593.358 807.601 612.882 803.497 632.039C799.255 651.865 791.154 670.411 779.418 687.165C767.687 703.913 753.022 717.866 735.837 728.629C719.244 739.028 700.992 746.032 681.624 749.453C662.243 752.867 642.714 752.53 623.552 748.428C603.722 744.191 585.172 736.097 568.42 724.366C551.663 712.642 537.71 697.978 526.945 680.804C516.548 664.216 509.545 645.97 506.125 626.606C502.714 607.235 503.053 587.712 507.161 568.553C511.249 549.437 518.926 531.522 529.976 515.248L343.763 384.898L346.296 381.27L346.334 381.292Z" fill="#00E1FF" fill-opacity="0.25"/>
<path d="M610.104 431.403C613.676 430.446 617.328 429.586 620.95 428.858L622.14 434.767C618.641 435.472 615.121 436.302 611.665 437.228C600.854 440.125 590.328 444.089 580.391 449L577.724 443.594C588.023 438.505 598.917 434.406 610.11 431.406L610.104 431.403ZM641.184 425.992C672.546 423.401 704.129 429.405 732.498 443.356L729.839 448.765C702.446 435.297 671.957 429.495 641.683 432L641.184 425.992ZM536.429 472.06L540.531 476.482C535.729 480.939 531.135 485.729 526.883 490.729L522.288 486.821C526.704 481.648 531.455 476.681 536.431 472.07L536.429 472.06ZM516.634 493.81L521.423 497.476C502.849 521.692 491.151 550.439 487.587 580.603L481.602 579.898C485.285 548.651 497.411 518.884 516.634 493.81ZM740.467 447.54C746.404 450.84 752.208 454.531 757.715 458.502L754.189 463.393C748.865 459.563 743.261 455.996 737.533 452.807L740.467 447.54ZM793.777 493.334C803.127 505.409 810.855 518.695 816.741 532.814L811.168 535.138C805.481 521.499 798.029 508.678 789.005 497.018L793.777 493.334ZM480.399 600.322L486.431 600.318C486.436 615.005 488.391 629.708 492.228 644.026C498.337 666.826 508.86 687.645 523.511 705.902L518.802 709.677C503.63 690.766 492.735 669.201 486.407 645.586C482.433 630.755 480.418 615.528 480.409 600.32L480.399 600.322ZM823.49 552.105C823.771 553.075 824.047 554.064 824.313 555.055C832.219 584.561 832.278 615.673 824.479 645.025L818.647 643.482C826.174 615.147 826.121 585.106 818.487 556.616C818.232 555.665 817.976 554.709 817.696 553.765L823.49 552.105ZM536.732 720.547C547.234 730.884 559.077 739.827 571.919 747.127L568.944 752.362C555.634 744.81 543.377 735.547 532.494 724.837L536.729 720.537L536.732 720.547ZM816.196 651.823L821.936 653.665C819.856 660.127 817.378 666.539 814.555 672.725L809.071 670.226C811.794 664.25 814.19 658.06 816.196 651.823ZM782.908 710.975L787.466 714.924C777.446 726.49 765.945 736.694 753.307 745.23L749.929 740.231C762.139 731.988 773.232 722.135 782.907 710.97L782.908 710.975ZM617.005 764.784C623.402 766.283 629.943 767.41 636.46 768.149L635.784 774.138C629.04 773.378 622.254 772.199 615.628 770.652L617.005 764.784ZM645.13 768.889C663.233 769.985 681.371 768.129 699.049 763.392C710.822 760.238 722.232 755.832 732.957 750.3L735.719 755.658C724.607 761.397 712.796 765.958 700.602 769.225C682.289 774.132 663.503 776.044 644.76 774.914L645.125 768.89L645.13 768.889Z" fill="#00E1FF" fill-opacity="0.25"/>
<path d="M617.293 438.432C703.166 418.184 789.963 468.615 814.889 553.229L812.19 554.022C787.689 470.836 702.363 421.262 617.936 441.172L617.293 438.432Z" fill="#00E1FF" fill-opacity="0.25"/>
<path d="M494.689 643.35L497.416 642.62C520.476 728.683 606.426 779.96 693.092 759.348L693.744 762.085C651.492 772.129 607.631 765.419 570.262 743.176C532.813 720.896 505.978 685.441 494.699 643.348L494.689 643.35Z" fill="#00E1FF" fill-opacity="0.25"/>
<path d="M594.586 373.487L595.73 377.758C472.977 410.65 399.874 537.238 432.754 659.946C465.632 782.649 592.245 855.723 714.988 822.834C837.726 789.946 910.843 663.354 877.965 540.652L882.236 539.507C890.439 570.12 892.404 601.439 888.057 632.568C883.868 662.635 874.009 691.282 858.752 717.693C843.5 744.103 823.617 766.955 799.659 785.625C774.852 804.949 746.748 818.913 716.125 827.118C685.497 835.325 654.174 837.296 623.036 832.952C592.965 828.769 564.309 818.918 537.894 803.667C511.48 788.422 488.621 768.552 469.952 744.598C450.626 719.802 436.665 691.708 428.463 661.096C420.259 630.478 418.294 599.159 422.641 568.03C426.83 537.963 436.683 509.317 451.946 482.904C467.199 456.499 487.08 433.643 511.038 414.972C535.846 395.648 563.945 381.687 594.573 373.48L594.586 373.487Z" fill="#00E1FF" fill-opacity="0.25"/>
<path d="M609.141 381.967C653.472 372.542 699.031 376.753 740.899 394.135C761.158 402.548 780.031 413.861 797.002 427.754C814.176 441.82 829.091 458.286 841.331 476.699L836.975 479.597C787.955 405.844 696.835 368.656 610.232 387.067L609.148 381.955L609.141 381.967Z" fill="#00E1FF" fill-opacity="0.25"/>
<path d="M585.109 338.12C589.737 336.88 594.464 335.743 599.143 334.754L600.129 334.549L605.392 359.322L604.406 359.527C600.156 360.429 595.86 361.461 591.664 362.585C586.397 363.997 581.137 365.595 576 367.333L575.047 367.658L566.901 343.678L567.855 343.353C573.504 341.435 579.303 339.676 585.099 338.123L585.109 338.12ZM598.577 336.927C594.254 337.859 589.901 338.918 585.629 340.062C580.201 341.517 574.772 343.149 569.461 344.939L576.31 365.109C581.18 363.481 586.164 361.978 591.144 360.643C595.058 359.595 599.042 358.624 603.012 357.765L598.577 336.927ZM507.799 372.396L521.634 393.601L520.79 394.156C498.983 408.378 479.641 425.941 463.294 446.352L462.669 447.139L442.89 431.319L443.515 430.531C461.541 408.015 482.883 388.638 506.954 372.946L507.799 372.396ZM518.857 393.018L507.217 375.173C483.953 390.476 463.268 409.251 445.722 431.002L462.36 444.316C478.492 424.329 497.492 407.079 518.857 393.018ZM415.609 472.944L438.023 484.753L437.555 485.644C424.319 510.743 415.579 537.651 411.581 565.612L411.436 566.6L386.359 563.026L386.508 562.032C390.92 531.188 400.555 501.522 415.136 473.836L415.609 472.944ZM880.982 449.138L881.539 449.97C897.408 473.838 909.347 500.063 917.05 527.925L917.31 528.896L892.898 535.648L892.638 534.677C885.639 509.403 874.815 485.629 860.44 463.997L859.883 463.165L880.982 449.138ZM384.044 588.315L409.358 589.334L409.315 590.338C409.075 596.167 409.047 602.078 409.236 607.916L409.273 608.92L383.951 609.72L383.919 608.714C383.72 602.276 383.741 595.756 384.001 589.319L384.034 588.318L384.044 588.315ZM385.306 628.741L410.486 625.963L410.598 626.963C411.968 639.38 414.306 651.851 417.567 664.02C421.048 677.01 425.594 689.752 431.082 701.902L431.493 702.811L408.399 713.237L407.984 712.313C401.937 698.922 396.927 684.87 393.096 670.572C389.504 657.17 386.912 643.43 385.404 629.734L385.293 628.734L385.306 628.741ZM408.712 628.174L387.527 630.513C389.038 643.777 391.57 657.069 395.048 670.049C398.763 683.914 403.596 697.544 409.414 710.565L428.843 701.795C423.489 689.825 419.052 677.291 415.634 664.533C412.435 652.595 410.113 640.368 408.712 628.174ZM896.833 552.306L921.686 547.442L921.888 548.434C923.117 554.753 924.148 561.196 924.928 567.57L925.051 568.573L899.904 571.655L899.781 570.653C899.078 564.872 898.139 559.031 897.028 553.295L896.833 552.306ZM453.838 741.793L454.418 742.608C470.742 765.637 490.804 785.572 514.044 801.835L514.866 802.407L500.334 823.151L499.512 822.579C473.88 804.638 451.754 782.652 433.753 757.247L433.172 756.427L453.846 741.78L453.838 741.793ZM870.159 720.52L892.215 732.986L891.722 733.862C877.538 758.945 859.589 781.489 838.381 800.862L837.642 801.546L820.553 782.847L821.293 782.169C840.526 764.597 856.809 744.15 869.667 721.401L870.159 720.52ZM534.209 814.565L535.09 815.057C540.189 817.907 545.443 820.614 550.736 823.099L551.647 823.524L540.863 846.445L539.957 846.019C534.132 843.277 528.331 840.302 522.709 837.15L521.828 836.658L534.206 814.555L534.209 814.565ZM548.966 824.485C544.246 822.245 539.549 819.826 534.983 817.296L524.56 835.888C529.568 838.66 534.72 841.308 539.892 843.766L548.966 824.485ZM567.4 830.195L568.342 830.551C592.798 839.819 618.39 845.094 644.406 846.238L645.41 846.282L644.286 871.591L643.281 871.542C614.57 870.279 586.339 864.45 559.365 854.239L558.423 853.882L567.4 830.195ZM807.506 793.86L823.084 813.826L822.29 814.443C817.213 818.397 811.928 822.218 806.59 825.799L805.758 826.357L791.646 805.324L792.483 804.765C797.324 801.521 802.106 798.056 806.704 794.468L807.503 793.85L807.506 793.86ZM820.259 813.483L807.153 796.688C803.025 799.875 798.762 802.964 794.442 805.879L806.308 823.578C811.051 820.371 815.734 816.981 820.259 813.483ZM772.079 817.059L783.978 839.413L783.092 839.887C764.969 849.526 745.637 857.127 725.639 862.485C715.573 865.183 705.265 867.325 695.02 868.851L694.029 868.998L690.305 843.952L691.301 843.804C700.599 842.423 709.944 840.475 719.085 838.025C737.232 833.163 754.773 826.263 771.197 817.532L772.079 817.059Z" fill="#00E1FF" fill-opacity="0.25"/>
<path d="M839.936 477.509L840.603 477.061C835.599 469.613 830.17 462.451 824.331 455.631L822.129 453.088C821.391 452.245 820.67 451.387 819.882 450.579L815.285 445.659L810.514 440.914C810.112 440.52 809.728 440.111 809.313 439.731L808.075 438.591L805.602 436.304C798.968 430.263 791.988 424.596 784.697 419.362C777.387 414.154 769.745 409.402 761.879 405.099C761.509 403.457 761.128 401.812 760.721 400.152C760.522 399.332 760.321 398.48 760.103 397.665L759.444 395.205L754.336 392.686C752.623 391.867 750.89 391.112 749.162 390.319L746.568 389.149C745.701 388.772 744.818 388.415 743.942 388.062L738.674 385.909L733.341 383.936C732.446 383.615 731.562 383.275 730.67 382.964L727.968 382.076C726.16 381.487 724.374 380.877 722.554 380.324L717.088 378.741C714.212 380.504 711.362 382.465 708.611 384.372L705.768 383.662C704.82 383.425 703.862 383.251 702.908 383.032L697.173 381.829C693.321 381.179 689.479 380.424 685.591 379.961L682.685 379.559C682.194 379.497 681.716 379.425 681.228 379.373L679.775 379.223L673.936 378.641C671.999 378.475 670.04 378.391 668.085 378.257L665.157 378.076L662.232 378.008C654.411 377.694 646.592 377.993 638.793 378.53L632.953 379.032C631.979 379.099 631.007 379.257 630.045 379.369L627.136 379.739L624.23 380.103C623.262 380.233 622.297 380.416 621.334 380.566L615.545 381.519L615.686 382.306C636.834 378.445 658.543 377.659 679.9 380.052C701.265 382.431 722.259 387.957 742.039 396.374C761.816 404.782 780.371 416.078 796.926 429.786C813.485 443.488 828.026 459.623 839.926 477.512L839.936 477.509Z" fill="#00E1FF" fill-opacity="0.25"/>
<path d="M846.376 677.463L847.126 677.764C852.115 665.395 855.937 652.551 858.475 639.464C861.021 626.369 862.285 613.036 862.239 599.703C862.169 573.042 856.832 546.401 846.684 521.728C836.551 497.052 821.626 474.355 802.936 455.335C793.598 445.819 783.323 437.216 772.314 429.695C761.303 422.168 749.562 415.716 737.313 410.431C712.808 399.855 686.28 394.044 659.605 393.519C632.935 392.97 606.17 397.683 581.265 407.268C556.357 416.816 533.31 431.22 513.842 449.464C504.108 458.575 495.267 468.643 487.487 479.474C479.708 490.304 472.983 501.893 467.415 514.013C465.604 514.962 463.759 515.925 461.949 516.938C460.148 517.966 458.334 519.002 456.519 520.076C453.021 528.794 450.067 537.733 447.698 546.822L448.292 548.275L448.927 549.717L450.198 552.569C450.629 553.516 451.035 554.447 451.497 555.386L452.851 558.167C448.12 580.717 447.203 604.057 450.207 626.901C453.202 649.749 460.034 672.085 470.304 692.708L471.027 692.347C467.221 684.68 463.876 676.787 461.019 668.721C460.642 667.716 460.321 666.697 459.979 665.683L458.964 662.639L458.033 659.567C457.72 658.54 457.4 657.526 457.132 656.487C456.569 654.427 455.969 652.367 455.471 650.289L454.696 647.175L454.002 644.04C453.514 641.96 453.143 639.848 452.732 637.753C452.515 636.701 452.351 635.645 452.175 634.586L451.644 631.418L451.191 628.239C451.047 627.178 450.883 626.122 450.777 625.061C450.54 622.93 450.264 620.815 450.107 618.678C449.345 610.158 449.074 601.582 449.398 593.03C450.027 575.919 452.749 558.89 457.62 542.476C460.035 534.264 462.964 526.2 466.352 518.336C469.773 510.48 473.67 502.847 477.999 495.459C482.342 488.083 487.18 481.002 492.397 474.211C497.631 467.444 503.318 461.019 509.333 454.932C515.398 448.89 521.803 443.195 528.562 437.933C530.27 436.639 531.949 435.316 533.691 434.073C534.554 433.448 535.412 432.808 536.292 432.189L538.935 430.36L540.254 429.446L541.597 428.563L544.28 426.803L547.013 425.111L548.376 424.261L552.523 421.807L555.328 420.241C557.187 419.171 559.096 418.207 560.988 417.198C564.805 415.264 568.659 413.385 572.592 411.684C576.497 409.937 580.494 408.375 584.505 406.88C586.525 406.171 588.524 405.42 590.573 404.774L593.624 403.768L596.696 402.837L598.234 402.376L599.783 401.961L602.873 401.096L605.989 400.309C607.028 400.042 608.058 399.782 609.11 399.559L612.241 398.85C613.289 398.617 614.337 398.423 615.391 398.21C617.484 397.768 619.603 397.427 621.701 397.048C630.151 395.641 638.687 394.778 647.238 394.411C655.792 394.098 664.367 394.265 672.893 394.994C681.42 395.745 689.909 396.981 698.28 398.782C706.648 400.589 714.911 402.894 723.006 405.696C731.089 408.534 739.002 411.844 746.692 415.612C754.371 419.399 761.804 423.673 768.962 428.371C776.121 433.075 782.951 438.26 789.467 443.804C795.962 449.369 802.107 455.358 807.883 461.683C813.614 468.036 819.001 474.718 823.903 481.725C828.803 488.743 833.327 496.028 837.315 503.608L838.815 506.447L840.244 509.326L840.953 510.765L841.641 512.225L842.996 515.13C844.733 519.037 846.426 522.978 847.926 526.987C854.049 542.978 858.115 559.742 860.111 576.748C861.079 585.25 861.535 593.815 861.46 602.37C861.344 610.932 860.755 619.48 859.594 627.965C858.415 636.445 856.747 644.85 854.536 653.121C852.316 661.394 849.598 669.525 846.399 677.468L846.376 677.463Z" fill="#00E1FF" fill-opacity="0.25"/>
<path d="M469.423 693.16C476.872 708.084 486.096 722.08 496.838 734.763L493.15 737.881C482.156 724.904 472.716 710.583 465.1 695.321L469.418 693.161L469.423 693.16ZM514.73 753.381C519.201 757.489 523.905 761.443 528.718 765.135L525.784 768.957C520.856 765.177 516.042 761.134 511.463 756.926L514.727 753.371L514.73 753.381ZM848.035 678.14L852.51 679.95C842.021 705.903 826.848 729.127 807.425 748.965L803.976 745.592C822.958 726.201 837.779 703.514 848.035 678.14ZM545.046 776.451C555.282 782.837 566.19 788.391 577.477 792.942C591.331 798.542 605.754 802.647 620.353 805.152L619.536 809.911C604.598 807.346 589.839 803.137 575.667 797.417C564.13 792.755 552.966 787.071 542.498 780.542L545.056 776.448L545.046 776.451ZM789.414 759.103L792.526 762.787C787.781 766.792 782.791 770.626 777.704 774.2L774.938 770.255C779.911 766.761 784.783 763.007 789.424 759.1L789.414 759.103ZM752.914 783.749L755.176 788.006C740.929 795.566 725.805 801.527 710.23 805.7C696.878 809.278 683.129 811.555 669.373 812.48L669.054 807.664C682.492 806.765 695.931 804.539 708.981 801.042C724.2 796.964 738.984 791.148 752.914 783.749Z" fill="#00E1FF" fill-opacity="0.25"/>
<path d="M618.46 459.51C643.197 452.882 669.258 452.865 693.834 459.464L692.969 462.694C668.961 456.245 643.495 456.269 619.327 462.745L618.46 459.51Z" fill="#00E1FF" fill-opacity="0.25"/>
<path d="M526.757 135.016L535.641 132.635L623.34 459.933L614.456 462.314L526.757 135.016Z" fill="#00E1FF" fill-opacity="0.25"/>
<path d="M376.125 320.758L376.715 320.164L554.639 498.044L554.048 498.634L376.125 320.758Z" fill="#00E1FF" fill-opacity="0.25"/>
<mask id="mask0_19_7" style="mask-type:luminance" maskUnits="userSpaceOnUse" x="42" y="324" width="477" height="352">
<path d="M42.4409 434.552L454.197 324.222L518.729 565.059L106.973 675.389L42.4409 434.552Z" fill="white"/>
</mask>
<g mask="url(#mask0_19_7)">
<path d="M44.1488 434.466L222.663 482.278L221.798 485.508L43.2834 437.696L44.1488 434.466ZM275.175 496.338L312.338 506.282L311.473 509.512L274.31 499.568L275.175 496.338ZM352.718 517.106L517.506 561.241L516.64 564.465L351.853 520.336L352.718 517.106Z" fill="#00E1FF" fill-opacity="0.25"/>
</g>
<path d="M255.731 702.623L515.933 632.902L518.312 641.782L258.11 711.502L255.731 702.623Z" fill="#00E1FF" fill-opacity="0.25"/>
<path d="M233.796 1019.36L554.901 698.343L557.855 701.299L236.749 1022.31L233.796 1019.36Z" fill="#00E1FF" fill-opacity="0.25"/>
<mask id="mask1_19_7" style="mask-type:luminance" maskUnits="userSpaceOnUse" x="433" y="736" width="262" height="323">
<path d="M433.061 786.787L621.226 736.368L694.166 1008.58L506 1059L433.061 786.787Z" fill="white"/>
</mask>
<g mask="url(#mask1_19_7)">
<path d="M505.775 1056.45L616.516 737.881L621.836 738.932L511.096 1057.5L505.775 1056.45Z" fill="#00E1FF" fill-opacity="0.25"/>
</g>
<path d="M690.82 737.628L694.854 736.547L760.019 979.744L755.984 980.825L690.82 737.628Z" fill="#00E1FF" fill-opacity="0.25"/>
<path d="M756.999 699.163L861.986 804.119L860.213 805.894L755.226 700.938L756.999 699.163ZM900.418 842.544L927.617 869.738L925.844 871.513L898.644 844.313L900.418 842.544ZM957.185 899.29L1077.81 1019.88L1076.03 1021.65L955.411 901.06L957.185 899.29Z" fill="#00E1FF" fill-opacity="0.25"/>
<path d="M794.865 638.542L795.517 636.124L1133.74 726.705L1133.09 729.121L794.865 638.542Z" fill="#00E1FF" fill-opacity="0.25"/>
<path d="M795.038 562.435L1040.85 496.57L1041.07 497.38L795.255 563.245L795.038 562.435Z" fill="#00E1FF" fill-opacity="0.25"/>
<mask id="mask2_19_7" style="mask-type:luminance" maskUnits="userSpaceOnUse" x="699" y="175" width="439" height="325">
<path d="M699.521 276.432L1077.57 175.134L1137.27 397.941L759.222 499.239L699.521 276.432Z" fill="white"/>
</mask>
<g mask="url(#mask2_19_7)">
<path d="M758.141 493.414L1074.63 177.011L1079.36 181.74L762.871 498.148L758.141 493.414Z" fill="#00E1FF" fill-opacity="0.25"/>
</g>
<path d="M692.155 460.722L761.895 200.601L764.311 201.247L694.578 461.373L692.155 460.722Z" fill="#00E1FF" fill-opacity="0.25"/>
<rect x="360.204" y="645.046" width="120" height="120" rx="60" fill="#020202" fill-opacity="0.5"/>
<rect x="361.704" y="646.546" width="117" height="117" rx="58.5" stroke="#2298BD" stroke-opacity="0.5" stroke-width="3"/>
<rect x="415.204" y="434.046" width="120" height="120" rx="60" fill="#020202" fill-opacity="0.5"/>
<rect x="416.704" y="435.546" width="117" height="117" rx="58.5" stroke="#2298BD" stroke-opacity="0.5" stroke-width="3"/>
<rect x="808.204" y="632.046" width="120" height="120" rx="60" fill="#020202" fill-opacity="0.5"/>
<rect x="809.704" y="633.546" width="117" height="117" rx="58.5" stroke="#2298BD" stroke-opacity="0.5" stroke-width="3"/>
<rect x="607.204" y="261.046" width="120" height="120" rx="60" fill="#020202" fill-opacity="0.3"/>
<rect x="608.704" y="262.546" width="117" height="117" rx="58.5" stroke="#2298BD" stroke-opacity="0.5" stroke-width="3"/>
<rect x="589.204" y="548.046" width="120" height="120" rx="60" fill="#020202" fill-opacity="0.4"/>
<rect x="590.704" y="549.546" width="117" height="117" rx="58.5" stroke="#2298BD" stroke-opacity="0.5" stroke-width="3"/>
<rect x="769.204" y="290.046" width="103" height="110" rx="51.5" fill="#020202" fill-opacity="0.3"/>
<rect x="770.704" y="291.546" width="100" height="107" rx="50" stroke="#2298BD" stroke-opacity="0.5" stroke-width="3"/>
<rect x="595.204" y="808.046" width="132" height="95" rx="47.5" fill="black" fill-opacity="0.5"/>
<rect x="596.704" y="809.546" width="129" height="92" rx="46" stroke="#23A3C2" stroke-opacity="0.5" stroke-width="3"/>
<mask id="mask3_19_7" style="mask-type:luminance" maskUnits="userSpaceOnUse" x="612" y="822" width="92" height="63">
<path d="M612.204 822.576H703.316V884.03H612.204V822.576Z" fill="white"/>
</mask>
<g mask="url(#mask3_19_7)">
<path d="M645.701 841.944H662.887V843.469H647.277V854.954H661.956V856.48H647.277V869.088H663.064V870.615H645.701V841.944ZM664.426 841.944H666.252L674.343 854.551L682.613 841.944L693.861 825.929L675.381 855.878L684.905 870.615H683.005L674.343 857.202L665.643 870.615H663.781L673.375 855.878L664.426 841.944ZM685.584 843.469V841.944H705.168V843.469H696.146V870.615H694.571V843.469H685.584ZM624.204 841.944H626.172L653.325 887.335L642.105 870.615L625.851 844.113L625.779 870.615H624.204V841.944ZM705.008 868.629C704.688 868.629 704.446 868.349 704.446 867.989C704.446 867.629 704.688 867.35 705.008 867.35C705.334 867.35 705.573 867.629 705.573 867.989C705.573 868.349 705.334 868.629 705.008 868.629ZM706.556 866.947H707.4C707.411 867.459 707.745 867.8 708.234 867.8C708.782 867.8 709.092 867.432 709.092 866.742V862.371H709.951V866.746C709.951 867.989 709.307 868.705 708.244 868.705C707.244 868.705 706.556 868.01 706.556 866.947ZM711.074 866.891H711.925C711.996 867.48 712.511 867.852 713.251 867.852C713.939 867.852 714.445 867.455 714.445 866.906C714.445 866.434 714.123 866.151 713.391 865.958L712.679 865.765C711.679 865.504 711.223 864.963 711.223 864.054C711.223 862.954 712.028 862.221 713.235 862.221C714.358 862.221 715.176 862.954 715.226 863.995H714.391C714.311 863.425 713.866 863.069 713.222 863.069C712.544 863.069 712.092 863.434 712.092 863.991C712.092 864.433 712.384 864.685 713.105 864.874L713.713 865.041C714.847 865.337 715.316 865.852 715.316 866.78C715.316 867.963 714.494 868.705 713.185 868.705C711.958 868.705 711.135 867.998 711.074 866.891Z" fill="white" fill-opacity="0.8"/>
</g>
<mask id="mask4_19_7" style="mask-type:luminance" maskUnits="userSpaceOnUse" x="390" y="676" width="63" height="59">
<path d="M390.204 676.046H452.262V734.695H390.204V676.046Z" fill="white"/>
</mask>
<g mask="url(#mask4_19_7)">
<path d="M418.369 676.828C420.073 675.999 422.248 675.995 423.909 676.828L449.361 689.156C450.952 689.926 452.018 691.451 452.003 693.028V717.748C452.013 719.391 450.843 720.949 449.164 721.704L423.85 733.975C423.416 734.181 422.96 734.335 422.479 734.435C421.999 734.535 421.511 734.579 421.017 734.568C420.522 734.556 420.038 734.488 419.565 734.366C419.091 734.243 418.646 734.067 418.226 733.842L410.63 730.07C410.112 729.804 409.53 729.594 409.163 729.164C409.488 728.789 410.062 728.742 410.532 728.577C411.589 728.289 412.556 727.845 413.527 727.377C413.773 727.23 414.073 727.285 414.308 727.417L420.785 730.636C421.248 730.864 421.717 730.562 422.113 730.37L446.97 718.316C447.277 718.188 447.447 717.909 447.421 717.62V693.137C447.455 692.809 447.236 692.508 446.888 692.375L421.638 680.155C421.488 680.066 421.324 680.022 421.142 680.022C420.961 680.022 420.797 680.065 420.647 680.153L395.432 692.399C395.091 692.532 394.857 692.828 394.9 693.158V717.641C394.87 717.93 395.048 718.202 395.358 718.327L402.095 721.596C403.362 722.181 404.915 722.511 406.308 722.08C406.614 721.982 406.894 721.847 407.151 721.674C407.408 721.502 407.628 721.299 407.814 721.069C407.999 720.838 408.138 720.59 408.235 720.322C408.331 720.054 408.378 719.78 408.377 719.5L408.384 695.165C408.355 694.804 408.751 694.506 409.157 694.543H412.397C412.823 694.533 413.158 694.921 413.1 695.284L413.093 719.774C413.095 721.948 412.056 724.314 409.714 725.382C406.829 726.664 403.261 726.394 400.41 725.162L393.166 721.72C391.46 720.988 390.316 719.405 390.327 717.765V693.044C390.331 692.643 390.395 692.248 390.522 691.862C390.648 691.475 390.832 691.109 391.072 690.764C391.312 690.42 391.6 690.108 391.937 689.83C392.274 689.551 392.649 689.317 393.059 689.124L418.369 676.828ZM425.708 693.964C429.388 693.781 433.328 693.843 436.639 695.402C439.203 696.595 440.624 699.1 440.67 701.55C440.599 701.879 440.197 702.063 439.831 702.039C438.766 702.037 437.696 702.051 436.627 702.034C436.173 702.048 435.91 701.689 435.853 701.345C435.547 700.173 434.802 699.014 433.519 698.448C431.551 697.601 429.267 697.642 427.119 697.66C425.551 697.734 423.864 697.85 422.537 698.64C421.515 699.241 421.208 700.472 421.571 701.427C421.912 702.129 422.857 702.354 423.626 702.563C428.062 703.559 432.761 703.478 437.115 704.773C438.915 705.307 440.678 706.348 441.295 707.969C442.1 710.14 441.749 712.736 439.952 714.48C438.496 715.915 436.373 716.677 434.252 717.12C431.434 717.66 428.51 717.673 425.649 717.432C422.957 717.168 420.156 716.56 418.079 714.985C416.302 713.66 415.438 711.594 415.522 709.602C415.543 709.265 415.933 709.03 416.311 709.058H419.508C419.938 709.032 420.253 709.351 420.275 709.698C420.472 710.797 420.96 711.987 422.095 712.629C424.28 713.84 427.022 713.756 429.525 713.791C431.597 713.713 433.924 713.689 435.618 712.51C436.514 711.837 436.775 710.715 436.535 709.748C436.272 708.931 435.256 708.553 434.405 708.283C430.025 707.093 425.273 707.525 420.937 706.177C419.177 705.643 417.474 704.632 416.799 703.077C415.855 700.88 416.288 698.157 418.275 696.473C420.193 694.797 423.006 694.15 425.67 693.92L425.708 693.964Z" fill="#8CC84B" fill-opacity="0.8"/>
</g>
<mask id="mask5_19_7" style="mask-type:luminance" maskUnits="userSpaceOnUse" x="792" y="325" width="59" height="41">
<path d="M792.204 325.046H850.204V365.739H792.204V325.046Z" fill="white"/>
</mask>
<g mask="url(#mask5_19_7)">
<mask id="mask6_19_7" style="mask-type:luminance" maskUnits="userSpaceOnUse" x="792" y="325" width="59" height="41">
<path d="M821.204 325.046C813.471 325.046 808.638 329.567 806.704 338.611C809.604 334.089 812.987 332.393 816.854 333.524C819.06 334.169 820.637 336.04 822.382 338.111C825.226 341.486 828.517 345.393 835.704 345.393C843.437 345.393 848.27 340.871 850.204 331.829C847.304 336.349 843.921 338.045 840.054 336.915C837.848 336.27 836.271 334.398 834.526 332.327C831.682 328.952 828.391 325.046 821.204 325.046ZM806.704 345.393C798.971 345.393 794.138 349.913 792.204 358.957C795.104 354.435 798.487 352.74 802.354 353.87C804.56 354.515 806.137 356.386 807.882 358.457C810.726 361.832 814.017 365.739 821.204 365.739C828.937 365.739 833.77 361.217 835.704 352.175C832.804 356.695 829.421 358.391 825.554 357.261C823.348 356.616 821.771 354.744 820.026 352.673C817.182 349.298 813.891 345.393 806.704 345.393Z" fill="white"/>
</mask>
<g mask="url(#mask6_19_7)">
<path d="M792.204 325.046V365.739H850.204V325.046H792.204Z" fill="url(#paint0_linear_19_7)"/>
</g>
</g>
<mask id="mask7_19_7" style="mask-type:luminance" maskUnits="userSpaceOnUse" x="613" y="577" width="71" height="63">
<path d="M613.204 577.046H683.109V639.713H613.204V577.046Z" fill="white"/>
</mask>
<g mask="url(#mask7_19_7)">
<path d="M670.656 597.451C669.912 597.195 669.162 596.958 668.406 596.741C668.533 596.222 668.649 595.71 668.753 595.206C670.456 586.934 669.343 580.271 665.541 578.077C661.896 575.974 655.934 578.167 649.913 583.411C649.32 583.929 648.741 584.461 648.174 585.008C647.794 584.644 647.408 584.288 647.016 583.938C640.706 578.331 634.382 575.968 630.583 578.168C626.942 580.278 625.863 586.542 627.396 594.382C627.549 595.158 627.721 595.93 627.912 596.698C627.018 596.952 626.153 597.223 625.326 597.511C617.928 600.093 613.204 604.138 613.204 608.335C613.204 612.668 618.276 617.014 625.981 619.65C626.606 619.863 627.236 620.06 627.87 620.241C627.664 621.069 627.481 621.901 627.321 622.737C625.86 630.44 627.002 636.557 630.634 638.653C634.385 640.818 640.681 638.593 646.812 633.229C647.309 632.794 647.796 632.345 648.27 631.884C648.883 632.478 649.514 633.053 650.158 633.609C656.098 638.723 661.962 640.788 665.591 638.686C669.339 636.515 670.558 629.945 668.976 621.95C668.851 621.324 668.711 620.701 668.556 620.082C668.999 619.95 669.433 619.815 669.856 619.676C677.866 617.019 683.078 612.726 683.078 608.335C683.078 604.122 678.202 600.051 670.656 597.451ZM668.917 616.841C668.536 616.966 668.144 617.088 667.744 617.208C666.86 614.405 665.667 611.427 664.206 608.349C665.599 605.343 666.747 602.403 667.607 599.62C668.321 599.826 669.015 600.044 669.684 600.275C676.15 602.503 680.094 605.796 680.094 608.335C680.094 611.037 675.833 614.546 668.917 616.841ZM666.048 622.531C666.747 626.065 666.847 629.261 666.384 631.761C665.967 634.005 665.131 635.502 664.096 636.102C661.894 637.377 657.184 635.719 652.106 631.345C651.506 630.826 650.919 630.292 650.349 629.742C652.318 627.587 654.286 625.081 656.207 622.299C659.584 622 662.776 621.509 665.67 620.839C665.809 621.4 665.935 621.964 666.048 622.531ZM637.026 635.88C634.874 636.641 633.161 636.663 632.126 636.064C629.921 634.793 629.005 629.883 630.254 623.295C630.403 622.516 630.573 621.743 630.764 620.973C633.627 621.606 636.795 622.062 640.181 622.338C642.114 625.06 644.139 627.562 646.18 629.753C645.746 630.172 645.301 630.583 644.849 630.98C642.137 633.352 639.42 635.034 637.026 635.88ZM626.946 616.824C623.539 615.658 620.726 614.143 618.797 612.49C617.063 611.006 616.19 609.531 616.19 608.335C616.19 605.788 619.982 602.54 626.31 600.333C627.077 600.065 627.881 599.812 628.714 599.575C629.59 602.421 630.736 605.397 632.12 608.406C630.717 611.46 629.554 614.484 628.671 617.364C628.093 617.198 627.517 617.017 626.946 616.824ZM630.325 593.807C629.012 587.092 629.884 582.026 632.079 580.754C634.417 579.4 639.586 581.33 645.035 586.172C645.389 586.488 645.74 586.812 646.082 587.14C644.052 589.322 642.046 591.805 640.13 594.512C636.843 594.817 633.698 595.307 630.806 595.962C630.628 595.248 630.468 594.53 630.325 593.808V593.807ZM660.466 601.256C659.783 600.075 659.075 598.909 658.342 597.759C660.571 598.041 662.708 598.416 664.712 598.873C664.111 600.805 663.36 602.824 662.477 604.895C661.831 603.668 661.16 602.455 660.466 601.256ZM648.175 589.275C649.551 590.769 650.931 592.434 652.287 594.242C649.535 594.112 646.779 594.112 644.028 594.241C645.386 592.45 646.776 590.786 648.175 589.275ZM635.805 601.276C635.119 602.466 634.461 603.671 633.832 604.892C632.962 602.829 632.219 600.801 631.611 598.842C633.605 598.394 635.731 598.03 637.947 597.753C637.206 598.91 636.492 600.085 635.805 601.276ZM638.01 619.127C635.722 618.872 633.564 618.526 631.571 618.091C632.188 616.097 632.948 614.026 633.836 611.918C634.467 613.139 635.128 614.346 635.816 615.536C636.524 616.76 637.257 617.959 638.01 619.127ZM648.257 627.604C646.843 626.076 645.431 624.386 644.052 622.568C645.391 622.621 646.754 622.647 648.141 622.647C649.565 622.647 650.973 622.615 652.36 622.554C650.998 624.404 649.625 626.096 648.257 627.604ZM662.505 611.81C663.439 613.942 664.226 616.002 664.85 617.962C662.825 618.424 660.638 618.797 658.332 619.073C659.071 617.902 659.787 616.717 660.478 615.516C661.182 614.297 661.857 613.06 662.505 611.81ZM657.892 614.024C656.834 615.863 655.716 617.668 654.54 619.436C652.411 619.588 650.276 619.662 648.141 619.66C645.967 619.66 643.851 619.592 641.815 619.46C640.608 617.697 639.47 615.889 638.399 614.039H638.4C637.335 612.2 636.34 610.321 635.418 608.406C636.338 606.49 637.33 604.609 638.391 602.768C639.451 600.928 640.582 599.127 641.778 597.37C643.857 597.214 645.987 597.132 648.141 597.132C650.305 597.132 652.439 597.214 654.516 597.373C655.702 599.126 656.823 600.92 657.883 602.753C658.947 604.59 659.951 606.46 660.895 608.363C659.961 610.285 658.96 612.173 657.892 614.024ZM664.049 580.666C666.39 582.015 667.3 587.461 665.83 594.603C665.737 595.059 665.631 595.522 665.517 595.993C662.616 595.324 659.468 594.825 656.173 594.517C654.253 591.78 652.264 589.292 650.267 587.139C650.79 586.634 651.325 586.142 651.873 585.664C657.033 581.171 661.854 579.397 664.049 580.666ZM648.141 602.09C651.587 602.09 654.382 604.886 654.382 608.335C654.382 611.782 651.587 614.579 648.141 614.579C644.695 614.579 641.902 611.782 641.902 608.335C641.902 604.886 644.695 602.09 648.141 602.09Z" fill="#00D8FF" fill-opacity="0.8"/>
</g>
<mask id="mask8_19_7" style="mask-type:luminance" maskUnits="userSpaceOnUse" x="842" y="669" width="54" height="58">
<path d="M842.204 669.046H895.125V726.046H842.204V669.046Z" fill="white"/>
</mask>
<g mask="url(#mask8_19_7)">
<path d="M844.112 668.913C843.581 668.913 843.078 669.158 842.726 669.586C842.376 670.013 842.212 670.583 842.278 671.149L847.207 713.568C847.283 714.227 847.662 714.802 848.214 715.099L867.93 725.704C868.45 725.983 869.063 725.983 869.583 725.704L889.298 715.099C889.851 714.802 890.228 714.227 890.305 713.568L895.234 671.149C895.299 670.583 895.136 670.013 894.786 669.586C894.435 669.158 893.93 668.913 893.4 668.913H844.112Z" fill="#FFC44D" fill-opacity="0.8"/>
</g>
<mask id="mask9_19_7" style="mask-type:luminance" maskUnits="userSpaceOnUse" x="842" y="669" width="27" height="58">
<path d="M842.204 669.046H868.772V726.046H842.204V669.046Z" fill="white"/>
</mask>
<g mask="url(#mask9_19_7)">
<path fill-rule="evenodd" clip-rule="evenodd" d="M868.756 668.913V725.913C868.473 725.913 868.19 725.843 867.93 725.704L848.214 715.099C847.662 714.802 847.283 714.227 847.207 713.568L842.278 671.149C842.212 670.583 842.376 670.013 842.726 669.586C843.078 669.158 843.581 668.913 844.112 668.913H868.756Z" fill="#E5B045" fill-opacity="0.8"/>
</g>
<path fill-rule="evenodd" clip-rule="evenodd" d="M865.059 676.867C866.08 676.867 866.908 677.757 866.908 678.856V713.32C866.908 714.029 866.557 714.684 865.987 715.041C865.418 715.396 864.715 715.398 864.143 715.047L855.517 709.745C854.632 709.199 854.323 707.985 854.83 707.031C855.336 706.078 856.465 705.747 857.351 706.292L863.211 709.895V678.856C863.211 677.757 864.039 676.867 865.059 676.867Z" fill="black"/>
<path fill-rule="evenodd" clip-rule="evenodd" d="M870.604 678.856C870.604 677.757 871.432 676.867 872.454 676.867H884.775C885.796 676.867 886.623 677.757 886.623 678.856C886.623 679.953 885.796 680.844 884.775 680.844H874.302V693.61L883.142 691.496C883.718 691.358 884.321 691.525 884.763 691.944C885.207 692.363 885.437 692.984 885.384 693.617L884.151 708.198C884.093 708.884 883.71 709.489 883.137 709.797L873.28 715.099C872.366 715.59 871.257 715.191 870.8 714.21C870.344 713.228 870.714 712.034 871.627 711.543L880.564 706.736L881.473 695.968L872.855 698.029C872.307 698.161 871.734 698.016 871.297 697.639C870.859 697.262 870.604 696.691 870.604 696.087V678.856Z" fill="#020202"/>
<mask id="mask10_19_7" style="mask-type:luminance" maskUnits="userSpaceOnUse" x="634" y="290" width="63" height="70">
<path d="M634.204 290.046H696.204V359.475H634.204V290.046Z" fill="white"/>
</mask>
<g mask="url(#mask10_19_7)">
<path d="M696.194 290.046H634.213L639.682 352.167L665.204 359.475L690.725 352.167L696.194 290.046Z" fill="#0277BD"/>
</g>
<path d="M665.204 295.527V353.811L685.621 347.965L690.179 295.527H665.204Z" fill="#039BE5"/>
<path d="M681.793 304.662H665.204V311.972H674.136L673.589 319.28H665.204V326.588H673.225L672.677 334.81L665.204 337.368V345.042L679.604 340.29L680.881 319.28L681.793 304.662Z" fill="#020202"/>
<path d="M665.204 304.662V311.972H648.979L648.432 304.662H665.204ZM656.817 319.28L657.182 326.588H665.204V319.28H656.817ZM657.546 330.241H650.255L650.802 340.29L665.204 345.042V337.368L657.729 334.81L657.546 330.241Z" fill="black"/>
<mask id="mask11_19_7" style="mask-type:luminance" maskUnits="userSpaceOnUse" x="445" y="463" width="62" height="70">
<path d="M445.204 463.046H506.204V532.761H445.204V463.046Z" fill="white"/>
</mask>
<g mask="url(#mask11_19_7)">
<path d="M450.801 525.529L445.259 463.377H506.151L500.603 525.518L475.668 532.43L450.801 525.529Z" fill="#E44D26" fill-opacity="0.8"/>
</g>
<path d="M475.704 527.245L495.854 521.661L500.593 468.555H475.704V527.245Z" fill="#F16529" fill-opacity="0.8"/>
<path d="M475.704 491.51H465.617L464.921 483.704H475.704V476.082H456.59L456.771 478.126L458.645 499.132H475.704V491.51ZM475.704 511.307L475.67 511.315L467.182 509.022L466.638 502.942H458.988L460.055 514.911L475.67 519.245L475.704 519.235V511.307Z" fill="black"/>
<path d="M475.679 491.51V499.132H485.065L484.179 509.019L475.676 511.311V519.242L491.303 514.911L491.417 513.622L493.211 493.553L493.397 491.507H491.344L475.679 491.51ZM475.679 476.082V483.704H494.09L494.244 481.99L494.591 478.126L494.773 476.08L475.679 476.082Z" fill="black"/>
<g filter="url(#filter1_f_19_7)">
<ellipse cx="880.704" cy="754.546" rx="30.5" ry="13.5" fill="#2298BD"/>
</g>
<g filter="url(#filter2_f_19_7)">
<ellipse cx="659.704" cy="910.546" rx="30.5" ry="13.5" fill="#2298BD"/>
</g>
<g filter="url(#filter3_f_19_7)">
<ellipse cx="432.704" cy="781.546" rx="30.5" ry="13.5" fill="#2298BD"/>
</g>
<g filter="url(#filter4_f_19_7)">
<ellipse cx="496.704" cy="567.546" rx="30.5" ry="13.5" fill="#2298BD"/>
</g>
<g filter="url(#filter5_f_19_7)">
<ellipse cx="648.704" cy="681.546" rx="30.5" ry="13.5" fill="#2298BD"/>
</g>
<g filter="url(#filter6_f_19_7)">
<ellipse cx="658.704" cy="400.546" rx="30.5" ry="13.5" fill="#2298BD"/>
</g>
<g filter="url(#filter7_f_19_7)">
<ellipse cx="817.704" cy="406.546" rx="30.5" ry="13.5" fill="#2298BD"/>
</g>
<defs>
<filter id="filter0_f_19_7" x="6.20398" y="69.0464" width="1261" height="1156" filterUnits="userSpaceOnUse" color-interpolation-filters="sRGB">
<feFlood flood-opacity="0" result="BackgroundImageFix"/>
<feBlend mode="normal" in="SourceGraphic" in2="BackgroundImageFix" result="shape"/>
<feGaussianBlur stdDeviation="200" result="effect1_foregroundBlur_19_7"/>
</filter>
<filter id="filter1_f_19_7" x="750.204" y="641.046" width="261" height="227" filterUnits="userSpaceOnUse" color-interpolation-filters="sRGB">
<feFlood flood-opacity="0" result="BackgroundImageFix"/>
<feBlend mode="normal" in="SourceGraphic" in2="BackgroundImageFix" result="shape"/>
<feGaussianBlur stdDeviation="50" result="effect1_foregroundBlur_19_7"/>
</filter>
<filter id="filter2_f_19_7" x="529.204" y="797.046" width="261" height="227" filterUnits="userSpaceOnUse" color-interpolation-filters="sRGB">
<feFlood flood-opacity="0" result="BackgroundImageFix"/>
<feBlend mode="normal" in="SourceGraphic" in2="BackgroundImageFix" result="shape"/>
<feGaussianBlur stdDeviation="50" result="effect1_foregroundBlur_19_7"/>
</filter>
<filter id="filter3_f_19_7" x="302.204" y="668.046" width="261" height="227" filterUnits="userSpaceOnUse" color-interpolation-filters="sRGB">
<feFlood flood-opacity="0" result="BackgroundImageFix"/>
<feBlend mode="normal" in="SourceGraphic" in2="BackgroundImageFix" result="shape"/>
<feGaussianBlur stdDeviation="50" result="effect1_foregroundBlur_19_7"/>
</filter>
<filter id="filter4_f_19_7" x="366.204" y="454.046" width="261" height="227" filterUnits="userSpaceOnUse" color-interpolation-filters="sRGB">
<feFlood flood-opacity="0" result="BackgroundImageFix"/>
<feBlend mode="normal" in="SourceGraphic" in2="BackgroundImageFix" result="shape"/>
<feGaussianBlur stdDeviation="50" result="effect1_foregroundBlur_19_7"/>
</filter>
<filter id="filter5_f_19_7" x="518.204" y="568.046" width="261" height="227" filterUnits="userSpaceOnUse" color-interpolation-filters="sRGB">
<feFlood flood-opacity="0" result="BackgroundImageFix"/>
<feBlend mode="normal" in="SourceGraphic" in2="BackgroundImageFix" result="shape"/>
<feGaussianBlur stdDeviation="50" result="effect1_foregroundBlur_19_7"/>
</filter>
<filter id="filter6_f_19_7" x="528.204" y="287.046" width="261" height="227" filterUnits="userSpaceOnUse" color-interpolation-filters="sRGB">
<feFlood flood-opacity="0" result="BackgroundImageFix"/>
<feBlend mode="normal" in="SourceGraphic" in2="BackgroundImageFix" result="shape"/>
<feGaussianBlur stdDeviation="50" result="effect1_foregroundBlur_19_7"/>
</filter>
<filter id="filter7_f_19_7" x="687.204" y="293.046" width="261" height="227" filterUnits="userSpaceOnUse" color-interpolation-filters="sRGB">
<feFlood flood-opacity="0" result="BackgroundImageFix"/>
<feBlend mode="normal" in="SourceGraphic" in2="BackgroundImageFix" result="shape"/>
<feGaussianBlur stdDeviation="50" result="effect1_foregroundBlur_19_7"/>
</filter>
<linearGradient id="paint0_linear_19_7" x1="786.983" y1="335.634" x2="849.78" y2="366.599" gradientUnits="userSpaceOnUse">
<stop stop-color="#2298BD"/>
<stop offset="0.0625" stop-color="#2298BD"/>
<stop offset="0.0703125" stop-color="#2298BD"/>
<stop offset="0.078125" stop-color="#2299BD"/>
<stop offset="0.0859375" stop-color="#2199BD"/>
<stop offset="0.09375" stop-color="#219ABD"/>
<stop offset="0.101562" stop-color="#219BBD"/>
<stop offset="0.109375" stop-color="#219BBD"/>
<stop offset="0.117187" stop-color="#219CBC"/>
<stop offset="0.125" stop-color="#219CBC"/>
<stop offset="0.132813" stop-color="#209DBC"/>
<stop offset="0.140625" stop-color="#209EBC"/>
<stop offset="0.148438" stop-color="#209EBC"/>
<stop offset="0.15625" stop-color="#209FBC"/>
<stop offset="0.164062" stop-color="#209FBC"/>
<stop offset="0.171875" stop-color="#1FA0BC"/>
<stop offset="0.179688" stop-color="#1FA0BC"/>
<stop offset="0.1875" stop-color="#1FA1BC"/>
<stop offset="0.195312" stop-color="#1FA2BC"/>
<stop offset="0.203125" stop-color="#1FA2BC"/>
<stop offset="0.210938" stop-color="#1FA3BC"/>
<stop offset="0.21875" stop-color="#1EA3BC"/>
<stop offset="0.226562" stop-color="#1EA4BB"/>
<stop offset="0.234375" stop-color="#1EA4BB"/>
<stop offset="0.242187" stop-color="#1EA5BB"/>
<stop offset="0.25" stop-color="#1EA6BB"/>
<stop offset="0.257031" stop-color="#1DA6BB"/>
<stop offset="0.257812" stop-color="#1DA6BB"/>
<stop offset="0.265625" stop-color="#1DA7BB"/>
<stop offset="0.273438" stop-color="#1DA7BB"/>
<stop offset="0.28125" stop-color="#1DA8BB"/>
<stop offset="0.289062" stop-color="#1DA8BB"/>
<stop offset="0.296875" stop-color="#1DA9BB"/>
<stop offset="0.304688" stop-color="#1CAABB"/>
<stop offset="0.3125" stop-color="#1CAABB"/>
<stop offset="0.320312" stop-color="#1CABBB"/>
<stop offset="0.328125" stop-color="#1CABBB"/>
<stop offset="0.335938" stop-color="#1CACBA"/>
<stop offset="0.34375" stop-color="#1BACBA"/>
<stop offset="0.351562" stop-color="#1BADBA"/>
<stop offset="0.359375" stop-color="#1BAEBA"/>
<stop offset="0.367188" stop-color="#1BAEBA"/>
<stop offset="0.375" stop-color="#1BAFBA"/>
<stop offset="0.382812" stop-color="#1BAFBA"/>
<stop offset="0.390625" stop-color="#1AB0BA"/>
<stop offset="0.398438" stop-color="#1AB1BA"/>
<stop offset="0.40625" stop-color="#1AB1BA"/>
<stop offset="0.414062" stop-color="#1AB2BA"/>
<stop offset="0.421875" stop-color="#1AB2BA"/>
<stop offset="0.429688" stop-color="#19B3BA"/>
<stop offset="0.4375" stop-color="#19B3BA"/>
<stop offset="0.445313" stop-color="#19B4B9"/>
<stop offset="0.453125" stop-color="#19B5B9"/>
<stop offset="0.460938" stop-color="#19B5B9"/>
<stop offset="0.46875" stop-color="#19B6B9"/>
<stop offset="0.476562" stop-color="#18B6B9"/>
<stop offset="0.484375" stop-color="#18B7B9"/>
<stop offset="0.492188" stop-color="#18B7B9"/>
<stop offset="0.5" stop-color="#18B8B9"/>
<stop offset="0.507812" stop-color="#18B9B9"/>
<stop offset="0.515625" stop-color="#17B9B9"/>
<stop offset="0.523438" stop-color="#17BAB9"/>
<stop offset="0.53125" stop-color="#17BAB9"/>
<stop offset="0.539062" stop-color="#17BBB9"/>
<stop offset="0.546875" stop-color="#17BBB9"/>
<stop offset="0.554688" stop-color="#17BCB8"/>
<stop offset="0.5625" stop-color="#16BDB8"/>
<stop offset="0.570313" stop-color="#16BDB8"/>
<stop offset="0.578125" stop-color="#16BEB8"/>
<stop offset="0.585938" stop-color="#16BEB8"/>
<stop offset="0.59375" stop-color="#16BFB8"/>
<stop offset="0.601562" stop-color="#15BFB8"/>
<stop offset="0.609375" stop-color="#15C0B8"/>
<stop offset="0.617188" stop-color="#15C1B8"/>
<stop offset="0.625" stop-color="#15C1B8"/>
<stop offset="0.632812" stop-color="#15C2B8"/>
<stop offset="0.640625" stop-color="#15C2B8"/>
<stop offset="0.648438" stop-color="#14C3B8"/>
<stop offset="0.65625" stop-color="#14C3B7"/>
<stop offset="0.664063" stop-color="#14C4B7"/>
<stop offset="0.671875" stop-color="#14C5B7"/>
<stop offset="0.679688" stop-color="#14C5B7"/>
<stop offset="0.6875" stop-color="#13C6B7"/>
<stop offset="0.695312" stop-color="#13C6B7"/>
<stop offset="0.703125" stop-color="#13C7B7"/>
<stop offset="0.710938" stop-color="#13C8B7"/>
<stop offset="0.71875" stop-color="#13C8B7"/>
<stop offset="0.726562" stop-color="#13C9B7"/>
<stop offset="0.734375" stop-color="#12C9B7"/>
<stop offset="0.742187" stop-color="#12CAB7"/>
<stop offset="0.742969" stop-color="#12CAB7"/>
<stop offset="0.75" stop-color="#12CBB7"/>
<stop offset="0.757813" stop-color="#12CBB7"/>
<stop offset="0.765625" stop-color="#12CCB6"/>
<stop offset="0.773438" stop-color="#11CCB6"/>
<stop offset="0.78125" stop-color="#11CDB6"/>
<stop offset="0.789062" stop-color="#11CDB6"/>
<stop offset="0.796875" stop-color="#11CEB6"/>
<stop offset="0.804688" stop-color="#11CEB6"/>
<stop offset="0.8125" stop-color="#11CFB6"/>
<stop offset="0.820312" stop-color="#10D0B6"/>
<stop offset="0.828125" stop-color="#10D0B6"/>
<stop offset="0.835937" stop-color="#10D1B6"/>
<stop offset="0.84375" stop-color="#10D1B6"/>
<stop offset="0.851562" stop-color="#10D2B6"/>
<stop offset="0.859375" stop-color="#0FD2B6"/>
<stop offset="0.867188" stop-color="#0FD3B6"/>
<stop offset="0.875" stop-color="#0FD4B5"/>
<stop offset="0.882812" stop-color="#0FD4B5"/>
<stop offset="0.890625" stop-color="#0FD5B5"/>
<stop offset="0.898438" stop-color="#0FD5B5"/>
<stop offset="0.90625" stop-color="#0ED6B5"/>
<stop offset="0.9375" stop-color="#0ED7B5"/>
<stop offset="1" stop-color="#0ED7B5"/>
</linearGradient>
</defs>
</svg>
